<svg xmlns="http://www.w3.org/2000/svg" viewBox="0 0 118.015 125.785" width="118.015" height="125.785" fill="none">
  <g opacity="0.5" transform="translate(27.8161, 112.7600) rotate(-156.01) scale(1, -1) translate(-16.7025, -21.9635)">
    <path id="Vector" d="M32.9993 0.586424V43.5208C32.4605 43.5242 31.9213 43.4485 31.3992 43.2935L4.23518 35.2297C1.9639 34.5555 0.406236 32.4674 0.406236 30.0971V0.408186L32.9993 0.586424Z" fill="#0C2F23"/>
    <path id="Vector_2" d="M32.9627 43.927C32.3937 43.927 31.8291 43.8449 31.2835 43.6831L4.11989 35.6192C1.69419 34.8992 0 32.6285 0 30.0973V0.408234C0 0.299938 0.0432197 0.196402 0.119739 0.120237C0.196258 0.044073 0.302914 -0.0114622 0.408381 0.00202392L33.0015 0.180137C33.2247 0.181328 33.4051 0.363013 33.4051 0.586347V43.5208C33.4051 43.7442 33.2251 43.9255 33.0019 43.927H32.9627ZM0.812004 0.816824V30.0973C0.812004 32.2715 2.26711 34.222 4.35064 34.8401L31.5147 42.904C31.8668 43.0087 32.228 43.0746 32.5931 43.1011V0.990177L0.812004 0.816824Z" fill="#16C284"/>
  </g>
  <g opacity="0.5" transform="translate(14.2621, 95.4079) rotate(-156.01) scale(1, -1) translate(-16.8816, -21.8734)">
    <path id="Vector" d="M33.3574 0.584192V29.4269C33.3574 31.7735 31.8302 33.8465 29.5898 34.5409L2.00045 43.092C1.48113 43.2529 0.943969 43.3351 0.406207 43.3384V0.40407L33.3574 0.584192Z" fill="#0C2F23"/>
    <path id="Vector_2" d="M0.406002 43.7469C0.298951 43.7469 0.195864 43.7045 0.119739 43.6287C0.0432156 43.5525 0 43.449 0 43.3407L0 0.40621C0 0.297914 0.0432196 0.194378 0.119739 0.118213C0.195864 0.0424472 0.298553 0 0.406002 0L0.408381 0L33.3595 0.180097C33.5828 0.181287 33.7632 0.362973 33.7632 0.586307V29.4292C33.7632 31.9684 32.1344 34.1796 29.7099 34.9313L2.12041 43.4823C1.56533 43.6545 0.989235 43.7433 0.408381 43.7469H0.406002ZM0.812004 0.8148L0.812004 42.9158C1.17399 42.8845 1.53202 42.8143 1.88014 42.7064L29.4696 34.1554C31.552 33.5095 32.9512 31.6106 32.9512 29.4292V0.990137L0.812004 0.8148Z" fill="#16C284"/>
  </g>
  <g opacity="0.5" transform="translate(39.0394, 97.8796) rotate(-156.01) scale(1, -1) translate(-9.3535, -4.0779)">
    <path id="Vector" d="M10.9357 2.99038L13.7493 3.95305L1.39058 7.74302C0.513605 7.84864 0.0467164 6.73563 0.736899 6.18314L6.04741 1.93826C6.04741 1.93826 11.1265 0.483999 11.4066 0.414976C11.5934 0.366182 15.694 0.516528 18.3005 0.614015L10.9357 2.99038Z" fill="#0C2F23"/>
    <path id="Vector_2" d="M1.28157 8.1557C0.767725 8.1557 0.306216 7.85263 0.10242 7.36668C-0.12199 6.83155 0.0310538 6.22819 0.483839 5.86561L5.79477 1.62064C5.8368 1.58692 5.88476 1.56233 5.9363 1.54765C6.14406 1.48814 11.026 0.0902115 11.3103 0.0203921C11.455 -0.016898 12.0438 -0.02721 18.3162 0.208026C18.5132 0.215167 18.6762 0.363135 18.7032 0.558303C18.7301 0.753471 18.6132 0.939916 18.4256 1.00061L12.2242 3.00151L13.8811 3.56838C14.0476 3.6255 14.1586 3.78339 14.1559 3.95912C14.1531 4.13525 14.0369 4.28956 13.8688 4.34113L1.51034 8.1311C1.48735 8.13824 1.46395 8.14301 1.43977 8.14618C1.38664 8.15252 1.33391 8.1557 1.28157 8.1557ZM6.23804 2.30612L0.990945 6.50031C0.785963 6.66454 0.784377 6.89304 0.850985 7.05251C0.914821 7.20563 1.06984 7.34963 1.3117 7.34249L12.4335 3.93175L10.8052 3.3744C10.6394 3.31767 10.5288 3.16138 10.5304 2.98644C10.532 2.8115 10.6454 2.65719 10.8119 2.60324L15.9821 0.935158C14.0587 0.866927 11.7988 0.795124 11.4843 0.814168C11.0926 0.9181 7.66302 1.89832 6.23804 2.30612Z" fill="#16C284"/>
  </g>
  <g opacity="0.5" transform="translate(33.9706, 80.7099) rotate(-156.01) scale(1, -1) translate(-19.2838, -6.8448)">
    <path id="Vector" d="M5.97274 13.284L38.1611 2.44635L36.2694 0.681554C36.2694 0.681554 35.4322 -0.104033 32.2146 0.996203C28.0511 2.41991 2.23958 11.0198 2.23958 11.0198L0.405514 12.1208C0.405514 12.1208 2.88499 10.208 5.97274 13.284Z" fill="#0C2F23"/>
    <path id="Vector_2" d="M5.97318 13.6895C5.86771 13.6895 5.76423 13.6483 5.68652 13.5713C3.49435 11.3867 1.68558 11.9028 0.973887 12.2531L0.615067 12.4685C0.42991 12.58 0.192017 12.5268 0.0706912 12.3491C-0.0506343 12.1714 -0.0121736 11.9298 0.158315 11.7985C0.170604 11.789 0.306206 11.6858 0.544492 11.5636L2.03132 10.6711C2.05669 10.6556 2.08405 10.6433 2.1118 10.6338C2.36991 10.5481 27.9694 2.01811 32.0838 0.611054C35.3667 -0.511577 36.3777 0.225472 36.5478 0.384544L38.4383 2.14862C38.5429 2.24621 38.5885 2.39179 38.5584 2.53143C38.5283 2.67146 38.4268 2.78489 38.2912 2.8309L6.10284 13.6685C6.06042 13.6828 6.0164 13.6895 5.97318 13.6895ZM3.03839 11.1816C3.90075 11.3217 4.95302 11.7588 6.07785 12.8196L37.3864 2.27794L35.9931 0.977991C35.99 0.977593 35.1668 0.415089 32.3462 1.37984C28.605 2.65916 7.12576 9.81941 3.03839 11.1816Z" fill="#16C284"/>
  </g>
  <g opacity="0.5" transform="translate(10.7984, 60.6409) rotate(-156.01) scale(1, -1) translate(-6.6962, -4.0824)">
    <path id="Vector" d="M11.3057 3.81926L12.8783 6.57097C13.2499 7.22124 12.5965 7.97705 11.8998 7.70284L0.405425 3.17905L3.81934 0.407825L8.27136 1.52049C9.55367 1.84097 10.6497 2.67127 11.3057 3.81926Z" fill="#0C2F23"/>
    <path id="Vector_2" d="M12.1968 8.1649C12.0485 8.1649 11.8978 8.13713 11.7515 8.07961L0.257383 3.55577C0.122976 3.50301 0.0270256 3.38241 0.00482133 3.2396C-0.0173829 3.09719 0.038125 2.95319 0.150332 2.86235L3.56408 0.0910802C3.6628 0.010155 3.79444 -0.0191975 3.91814 0.0125357L8.37028 1.12525C9.75283 1.47077 10.9514 2.37879 11.6587 3.61646L13.2312 6.3679C13.4873 6.81576 13.4346 7.35764 13.0972 7.74798C12.8625 8.01932 12.5354 8.1649 12.1968 8.1649ZM1.20221 3.05435L12.0489 7.32352C12.2848 7.41595 12.441 7.26521 12.483 7.21642C12.5251 7.16762 12.6523 6.99189 12.5263 6.77093L10.9538 4.0195C10.3555 2.97303 9.34247 2.20544 8.17363 1.91307L3.91814 0.84955L1.20221 3.05435Z" fill="#16C284"/>
  </g>
  <g opacity="0.5" transform="translate(18.3690, 60.5906) rotate(-156.01) scale(1, -1) translate(-19.2841, -6.8445)">
    <path id="Vector" d="M32.594 13.2841L0.405661 2.44643L2.2973 0.681636C2.2973 0.681636 3.13457 -0.103951 6.35214 0.996285C10.5157 2.41999 36.3271 11.0199 36.3271 11.0199L38.1612 12.1209C38.1612 12.1209 35.6817 10.2081 32.594 13.2841Z" fill="#0C2F23"/>
    <path id="Vector_2" d="M32.5945 13.689C32.5513 13.689 32.5073 13.6822 32.4648 13.6679L0.276507 2.83039C0.141305 2.78438 0.0394092 2.67092 0.00927578 2.53089C-0.0208577 2.39126 0.0247398 2.24567 0.129411 2.14809L2.02105 0.383214C2.18955 0.224934 3.20178 -0.510529 6.4839 0.610517C10.5982 2.01758 36.1982 10.5476 36.4563 10.6333C36.484 10.6428 36.5114 10.6551 36.5368 10.6706L38.0236 11.5631C38.2619 11.6853 38.3975 11.7884 38.4098 11.798C38.5802 11.9293 38.6187 12.1708 38.4974 12.3486C38.3765 12.5263 38.1386 12.5794 37.953 12.468L37.5922 12.2514C36.8817 11.9031 35.0741 11.3858 32.8808 13.5708C32.8034 13.6477 32.7 13.689 32.5945 13.689ZM1.18089 2.27741L32.4898 12.819C33.615 11.7583 34.6673 11.3211 35.5297 11.1811C31.4423 9.81887 9.96266 2.65862 6.22142 1.3793C3.381 0.408208 2.56701 0.984991 2.55908 0.990942L1.18089 2.27741Z" fill="#16C284"/>
  </g>
  <g opacity="0.5" transform="translate(24.9602, 78.5464) rotate(-156.01) scale(1, -1) translate(-33.2678, -11.2459)">
    <path id="Vector" d="M66.1296 11.3353L32.9877 22.0308L32.8212 22.0837L3.21967 11.9405L0.406057 10.9779L7.77094 8.60151L33.1786 0.40422L33.2313 0.420484L66.1296 11.3353Z" fill="#0C2F23"/>
    <path id="Vector_2" d="M32.8211 22.4917C32.7767 22.4917 32.7323 22.4846 32.6895 22.4699L0.274782 11.3638C0.109052 11.307 -0.00156663 11.1507 1.67791e-05 10.9758C0.00160019 10.8009 0.114996 10.6466 0.281522 10.5926L33.0539 0.0192437C33.1332 -0.00614447 33.218 -0.00614294 33.2981 0.0176569L33.3508 0.0339212L66.2572 10.9512C66.4241 11.0064 66.5363 11.1626 66.5356 11.3384C66.5348 11.5141 66.4214 11.6696 66.254 11.7236L32.9444 22.4727C32.9044 22.4854 32.8628 22.4917 32.8211 22.4917ZM1.69381 10.9909L32.8255 21.6579L32.8644 21.6452L64.8235 11.3316L33.1784 0.832854L1.69381 10.9909Z" fill="#16C284"/>
  </g>
  <g opacity="0.5" transform="translate(14.9820, 81.5338) rotate(-156.01) scale(1, -1) translate(-19.6256, -11.1272)">
    <path id="Vector" d="M37.2721 13.3825L9.77386 21.6843C8.25299 22.23 6.29319 21.3546 5.3965 19.7291L0.406057 10.6823L33.4119 0.404441L38.4023 9.45122C39.299 11.0767 38.793 12.8368 37.2721 13.3825Z" fill="#0C2F23"/>
    <path id="Vector_2" d="M8.8242 22.2544C7.37782 22.2544 5.82875 21.3543 5.04093 19.9267L0.0503616 10.8802C-0.00831783 10.773 -0.0162462 10.6453 0.0293478 10.5323C0.0749419 10.4188 0.168911 10.3323 0.285478 10.2958L33.2914 0.0180014C33.4749 -0.0379338 33.6744 0.041407 33.7675 0.209602L38.7581 9.25611C39.285 10.2125 39.3957 11.2697 39.0606 12.1567C38.774 12.9152 38.1876 13.4868 37.4093 13.7661C37.4025 13.7684 37.3962 13.7704 37.3894 13.7724L9.89115 22.0743C9.55136 22.1965 9.19095 22.2544 8.8242 22.2544ZM1.00193 10.9238L5.75223 19.5339C6.55511 20.9902 8.29886 21.784 9.6366 21.3032L37.1444 12.9981C37.6983 12.7966 38.0984 12.4066 38.301 11.8695C38.5515 11.2054 38.4592 10.3962 38.0468 9.64883L33.2164 0.892305L1.00193 10.9238Z" fill="#16C284"/>
  </g>
  <g opacity="0.5" transform="translate(30.8904, 101.4770) rotate(-156.01) scale(1, -1) translate(-19.5246, -11.3651)">
    <path id="Vector" d="M1.97005 13.3106L29.3241 22.1462C30.837 22.7214 32.7865 21.884 33.6785 20.2759L38.6428 11.326L5.81006 0.407464L0.845781 9.35735C-0.0461971 10.9655 0.457162 12.7354 1.97005 13.3106Z" fill="#0C2F23"/>
    <path id="Vector_2" d="M30.3288 22.7302C29.9343 22.7302 29.5461 22.6643 29.1802 22.5251L1.8456 13.696C1.83926 13.694 1.83291 13.6916 1.82617 13.6892C1.04747 13.3933 0.463848 12.8062 0.182343 12.0358C-0.142378 11.1476 -0.0297763 10.0992 0.491205 9.15943L5.45561 0.209319C5.54997 0.0383455 5.75258 -0.0409903 5.93853 0.0208918L38.7712 10.9398C38.8857 10.9779 38.9773 11.0651 39.0213 11.1778C39.0653 11.2904 39.0566 11.4166 38.9979 11.5225L34.0339 20.4722C33.2624 21.8634 31.7577 22.7302 30.3288 22.7302ZM2.1053 12.9264L29.4494 21.7591C30.7974 22.2712 32.5273 21.5143 33.3242 20.0779L38.0507 11.5562L6.00197 0.898369L1.20092 9.55374C0.794516 10.2868 0.700945 11.0901 0.944785 11.7569C1.14303 12.2992 1.55498 12.7142 2.1053 12.9264Z" fill="#16C284"/>
  </g>
  <g opacity="0.5" transform="translate(26.2819, 47.6222) rotate(-156.01) scale(1, -1) translate(-11.4508, -26.1436)">
    <path id="Vector" d="M7.75716 52.2871C7.64932 52.2871 7.54187 52.2447 7.46218 52.1602L6.48008 51.1213C6.32585 50.9582 6.33299 50.7012 6.49594 50.5469C6.6589 50.3933 6.91622 50.3997 7.07005 50.5627L8.05215 51.6016C8.20638 51.7647 8.19924 52.0217 8.03629 52.1761C7.95778 52.2502 7.85747 52.2871 7.75716 52.2871Z" fill="#16C284"/>
    <path id="Vector_2" d="M4.75155 49.1094C4.64371 49.1094 4.53626 49.0669 4.45657 48.9821L4.08625 48.5901C3.51809 47.9891 2.9979 47.3413 2.53996 46.6654C2.41427 46.4797 2.46264 46.2274 2.64859 46.1013C2.83375 45.9759 3.08631 46.0235 3.2124 46.21C3.64536 46.8495 4.13819 47.4627 4.67622 48.0324L5.04654 48.4243C5.20077 48.5873 5.19324 48.8444 5.03028 48.9983C4.95218 49.0725 4.85187 49.1094 4.75155 49.1094ZM1.48491 44.2539C1.32552 44.2539 1.17406 44.1591 1.10943 44.0024C0.726825 43.0718 0.438183 42.0963 0.25223 41.103C0.210599 40.8824 0.355712 40.6702 0.576159 40.629C0.800569 40.5873 1.00873 40.7329 1.04996 40.9531C1.226 41.892 1.49878 42.8139 1.86038 43.693C1.94562 43.9005 1.8469 44.1381 1.63953 44.2234C1.58878 44.244 1.53645 44.2539 1.48491 44.2539ZM0.406067 38.5035H0.39893C0.174914 38.4995 -0.0039019 38.3147 6.4738e-05 38.0902C0.0175106 37.0841 0.13685 36.0746 0.354523 35.0892C0.402894 34.8702 0.621361 34.7322 0.838633 34.7802C1.05749 34.8286 1.19587 35.0456 1.1475 35.2645C0.941324 36.1972 0.828325 37.1524 0.812068 38.1044C0.808102 38.3262 0.627305 38.5035 0.406067 38.5035ZM1.66808 32.7896C1.61337 32.7896 1.55746 32.7785 1.50394 32.7547C1.29895 32.6638 1.20657 32.4238 1.29737 32.2188C1.70734 31.2945 2.21166 30.4114 2.79609 29.5943C2.92653 29.4122 3.17988 29.3697 3.36266 29.5002C3.54505 29.6308 3.58707 29.8846 3.45663 30.0671C2.90393 30.8399 2.42696 31.6745 2.03959 32.548C1.97219 32.6995 1.8239 32.7896 1.66808 32.7896ZM5.07152 28.0337C4.96209 28.0337 4.85305 27.9896 4.77297 27.9028C4.62111 27.7374 4.63142 27.4807 4.79636 27.3288C5.53462 26.6488 6.3486 26.0399 7.21611 25.5195C7.40881 25.4036 7.6578 25.4663 7.77318 25.6587C7.88855 25.8511 7.8263 26.1006 7.63401 26.216C6.81368 26.7083 6.0441 27.2839 5.34668 27.9262C5.26857 27.9984 5.16984 28.0337 5.07152 28.0337ZM10.0704 24.9863C9.91341 24.9863 9.76433 24.8951 9.69772 24.7423C9.60812 24.5365 9.70248 24.2973 9.90786 24.2076L12.6075 23.0322C12.8137 22.9418 13.0528 23.0374 13.142 23.2425C13.2316 23.4483 13.1372 23.6875 12.9319 23.7772L10.2322 24.9526C10.1795 24.9756 10.1243 24.9863 10.0704 24.9863ZM15.4186 22.5312C15.2798 22.5312 15.145 22.4602 15.0693 22.3325C14.9547 22.1397 15.0182 21.8902 15.2109 21.7759C16.0328 21.2876 16.8051 20.7152 17.5057 20.0749C17.6715 19.9246 17.928 19.9349 18.0794 20.1007C18.2309 20.2665 18.219 20.5236 18.0537 20.6747C17.3118 21.3522 16.4951 21.9576 15.6256 22.4741C15.5606 22.513 15.4892 22.5312 15.4186 22.5312ZM19.7348 18.5857C19.6523 18.5857 19.5694 18.5607 19.4977 18.5088C19.3157 18.3775 19.2748 18.1236 19.4061 17.9415C19.9627 17.1703 20.4437 16.3377 20.8354 15.467C20.9274 15.2627 21.1681 15.1718 21.3723 15.2631C21.5768 15.3551 21.668 15.5959 21.576 15.8002C21.1617 16.7209 20.653 17.6015 20.0642 18.4175C19.985 18.5274 19.8608 18.5857 19.7348 18.5857ZM22.1375 13.2514C22.1077 13.2514 22.0776 13.2483 22.0475 13.2415C21.829 13.1919 21.6918 12.9746 21.741 12.7556C21.9515 11.8238 22.0689 10.8689 22.0895 9.91806C22.0943 9.69433 22.2897 9.52138 22.5042 9.52058C22.7286 9.52574 22.9063 9.71139 22.9015 9.93552C22.8797 10.9407 22.7556 11.9499 22.5332 12.9349C22.4903 13.1233 22.323 13.2514 22.1375 13.2514ZM22.2624 7.40146C22.0701 7.40146 21.8992 7.26421 21.8635 7.06825C21.6918 6.13087 21.423 5.20817 21.0642 4.32593C20.9793 4.11807 21.0793 3.88124 21.287 3.79675C21.4936 3.71106 21.7319 3.81182 21.8159 4.01969C22.1962 4.9535 22.4804 5.93014 22.662 6.92226C22.7025 7.14282 22.5566 7.35426 22.3357 7.39472C22.3111 7.39948 22.2866 7.40146 22.2624 7.40146Z" fill="#16C284"/>
    <path id="Vector_3" d="M20.047 1.9605C19.9162 1.9605 19.7881 1.89743 19.7096 1.7808C19.4531 1.39958 19.1736 1.02352 18.8786 0.664123C18.7366 0.490375 18.7616 0.234506 18.9349 0.0920973C19.1089 -0.0503159 19.3639 -0.0245289 19.5066 0.148427C19.8179 0.528059 20.1128 0.924747 20.3837 1.32778C20.5085 1.51383 20.4594 1.76612 20.273 1.89148C20.2036 1.93829 20.1247 1.9605 20.047 1.9605Z" fill="#16C284"/>
  </g>
  <g opacity="0.5" transform="translate(29.7339, 10.0439) rotate(-156.01) scale(1, -1) translate(-4.9812, -4.6909)">
    <path id="Vector" d="M5.93461 0.0186042C4.42931 0.151715 2.91648 0.643661 2.40772 1.71822C1.26462 2.04304 0.530142 3.45491 0.150745 4.91843C-0.372096 6.93496 0.508734 8.90829 2.11808 9.32602C3.72752 9.74367 4.85861 7.74153 5.38144 5.72497C5.4155 5.59341 5.443 5.46205 5.46535 5.33123C5.59799 5.33075 5.73204 5.32525 5.86743 5.31326C7.94157 5.12979 10.1017 4.34378 9.95533 2.68669C9.80886 1.02967 8.00873 -0.164889 5.93461 0.0186042Z" fill="#16C284"/>
    <path id="Vector_2" d="M6.57808 2.75661C7.92342 4.34631 8.15675 6.36274 7.09864 7.25912C6.04063 8.15542 4.09116 7.5928 2.74582 6.0031C1.90689 5.0118 1.50108 3.85351 1.56959 2.90544C1.42278 2.82057 1.2868 2.70779 1.16981 2.56956C0.623375 1.92387 0.692451 0.969063 1.32323 0.434698C1.95223 -0.0981643 2.90674 -0.010475 3.45318 0.635212C3.57017 0.773449 3.65882 0.926299 3.71838 1.0851C4.66428 1.17378 5.73916 1.76531 6.57808 2.75661Z" fill="#16C284"/>
  </g>
</svg>