<svg preserveAspectRatio="none" width="100%" height="100%" overflow="visible" style="display: block;" viewBox="0 0 82.578 14.52" fill="none" xmlns="http://www.w3.org/2000/svg">
<g id="Group 18">
<path id="Vector" d="M4.42038 14.2608L0 0.261208H3.10029L5.98058 9.62046L9.02062 0.261208H12.0406L15.0404 9.62046L17.9399 0.261208H21.0201L16.5806 14.2608H13.4611L10.5014 4.72082L7.5216 14.2608H4.42129H4.42038Z" fill="var(--fill-0, white)"/>
<path id="Vector_2" d="M22.52 14.2608V0.261208H25.5399V5.78072H31.3799V0.261208H34.3998V14.2608H31.3799V8.62081H25.5399V14.2608H22.52Z" fill="var(--fill-0, white)"/>
<path id="Vector_3" d="M35.9 14.2608L41.8997 0.261208H45.0192L51.0189 14.2608H47.6987L46.5191 11.5412H40.3989L39.2385 14.2608H35.8991H35.9ZM41.3803 8.88099H45.5405L43.4809 4.00144H43.4408L41.3812 8.88099H41.3803Z" fill="var(--fill-0, white)"/>
<path id="Vector_4" d="M52.5188 14.2608V0.261208H55.5388V11.481H60.579V14.2608H52.5188Z" fill="var(--fill-0, white)"/>
<path id="Vector_5" d="M62.5583 14.2608V0.261208H70.3784V3.04105H65.5782V5.78072H70.1383V8.56056H65.5782V11.4801H70.4779V14.2599H62.5583V14.2608Z" fill="var(--fill-0, white)"/>
<path id="Vector_6" d="M77.8582 5.68021C79.9981 6.23983 82.578 7.00029 82.578 10.1599C82.578 12.6997 80.4783 14.52 77.3981 14.52C75.1979 14.52 73.5382 13.7002 72.178 12.14L74.2576 10.2001C75.0975 11.1404 75.9775 11.7402 77.3971 11.7402C78.8971 11.7402 79.5571 11.1002 79.5571 10.2402C79.5571 9.22051 78.1969 8.90008 76.6376 8.46005C74.5981 7.90043 72.4975 6.94004 72.4975 4.09994C72.4975 1.67979 74.4576 1.4534e-05 77.2776 1.4534e-05C79.4978 1.4534e-05 80.8571 0.799733 82.1572 2.09973L80.0775 3.97944C79.3974 3.27923 78.4772 2.77986 77.2575 2.77986C76.1373 2.77986 75.5174 3.26005 75.5174 4.03969C75.5174 4.95991 76.5573 5.33969 77.8573 5.6793L77.8582 5.68021Z" fill="var(--fill-0, white)"/>
</g>
</svg>
