<svg preserveAspectRatio="none" width="100%" height="100%" overflow="visible" style="display: block;" viewBox="0 0 82.6176 14.0006" fill="none" xmlns="http://www.w3.org/2000/svg">
<g id="Group 17">
<path id="Vector" d="M7.5216 0.00100374L10.5014 9.54102L13.4611 0.00100374H16.5806L21.0201 14.0006H17.9399L15.0404 4.64138L12.0406 14.0006H9.02062L5.98058 4.64138L3.10029 14.0006H0L4.42038 0.00100374H7.52069H7.5216Z" fill="var(--fill-0, white)"/>
<path id="Vector_2" d="M20.9012 13.9996L26.901 4.90882e-06H30.0204L36.0202 13.9996H32.6999L31.5204 11.2801H25.4001L24.2398 13.9996H20.9003H20.9012ZM26.3815 8.6198H30.5417L28.4822 3.74025H28.442L26.3824 8.6198H26.3815Z" fill="var(--fill-0, white)"/>
<path id="Vector_3" d="M45.1997 13.9996L41.5197 8.95941H40.0197V13.9996H37.0199V4.90882e-06H42.5595C44.7195 4.90882e-06 47.0392 1.47985 47.0392 4.47971C47.0392 6.5 45.9793 7.83926 44.6191 8.4993L48.5985 13.9987H45.1988L45.1997 13.9996ZM40.0197 6.34024H42.0793C43.3391 6.34024 44.0193 5.56061 44.0193 4.48062C44.0193 3.40064 43.3391 2.62101 42.0793 2.62101H40.0197V6.34116V6.34024Z" fill="var(--fill-0, white)"/>
<path id="Vector_4" d="M52.5998 7.48056V14.0006H49.5999V0.00100374H52.5998V6.00071L57.2995 0.00100374H60.8399L55.6198 6.7411L61.0398 14.0006H57.5196L52.5998 7.48056Z" fill="var(--fill-0, white)"/>
<path id="Vector_5" d="M62.559 13.9996V4.90882e-06H70.3791V2.77985H65.579V5.51953H70.139V8.29937H65.579V11.2189H70.4787V13.9987H62.559V13.9996Z" fill="var(--fill-0, white)"/>
<path id="Vector_6" d="M75.8784 13.9996V2.77985H72.1382V4.90882e-06H82.6176V2.77985H78.8774V13.9996H75.8775H75.8784Z" fill="var(--fill-0, white)"/>
</g>
</svg>
