<svg preserveAspectRatio="none" width="100%" height="100%" overflow="visible" style="display: block;" viewBox="0 0 24 24" fill="none" xmlns="http://www.w3.org/2000/svg">
<g id="mascot">
<path id="Vector" d="M7.25546 7.92674C6.82117 7.99313 6.60381 8.02586 6.16954 8.09224C5.99117 5.8489 7.24649 4.1433 9.43894 3.64637C9.50483 4.08097 9.538 4.29848 9.60434 4.73306C8.01287 5.14432 7.17433 6.27721 7.2559 7.92674H7.25546Z" fill="var(--fill-0, #19FB9B)"/>
<path id="Vector_2" d="M20.7027 13.8264C20.7027 13.8264 20.5625 12.4402 19.3613 12.2733C18.1598 12.1065 17.9025 12.5366 17.9025 12.5366C17.9025 12.5366 18.8028 13.4022 19.0485 14.5373C19.2942 15.672 18.8966 15.9411 18.4758 15.5903C18.0545 15.2392 17.6691 14.5373 17.0026 12.607C16.3362 10.6762 15.0499 8.48853 12.0221 7.27178C10.2944 6.57751 8.27045 6.43221 6.37288 6.86544C6.26845 6.85827 6.16268 6.8511 6.05513 6.84393C3.06357 6.65107 1.65766 6.80491 1.3054 6.85468C1.25296 6.86232 1.20052 6.865 1.14764 6.86949C0.901594 6.89012 0.663171 7.11795 0.592809 7.41037L0.0617198 9.61603C-0.0704909 10.1663 0.0155586 10.6991 0.263846 11.0907L0.262501 11.0898L0.603116 11.6508C0.531855 11.8482 0.468665 12.0491 0.414886 12.254C0.312701 12.6447 0.243232 13.0479 0.210516 13.4591C1.39324 12.8797 3.70939 12.032 7.22082 13.3398C12.2834 15.2248 12.5639 17.6583 16.2349 18.6046C18.3403 19.1473 19.4138 18.4373 19.991 17.57C20.2672 17.0322 20.4607 16.433 20.545 15.7657C20.545 15.7657 21.6147 15.6693 22.4125 15.1867C23.2108 14.7041 23.7279 14.265 24 14.1861C24 14.1861 23.2367 12.7649 20.7027 13.8264Z" fill="var(--fill-0, #19FB9B)"/>
<path id="Vector_3" d="M11.9006 4.06412C11.9109 2.93444 11.004 2.01034 9.87514 2.00009C8.74626 1.98983 7.82281 2.89731 7.81256 4.02699C7.80232 5.15668 8.70916 6.08078 9.83804 6.09104C10.9669 6.10129 11.8904 5.19381 11.9006 4.06412Z" fill="var(--fill-0, #19FB9B)"/>
<path id="Vector_4" d="M10.7883 4.0537C10.793 3.53877 10.3796 3.11754 9.86504 3.11287C9.35047 3.10819 8.92954 3.52184 8.92488 4.03677C8.92021 4.5517 9.33357 4.97293 9.84814 4.9776C10.3627 4.98227 10.7836 4.56862 10.7883 4.0537Z" fill="var(--fill-0, white)"/>
<path id="Vector_5" d="M19.9915 17.5702C18.8308 19.8332 16.2139 21.011 14.1738 21.616C11.6484 22.3644 5.85485 22.7403 2.48235 19.2758C0.69236 17.437 0.0590956 15.36 0.211026 13.4593C1.39375 12.8799 3.70945 12.0322 7.22133 13.34C12.2839 15.225 12.5644 17.6585 16.2354 18.6048C18.3409 19.1475 19.4144 18.4376 19.9915 17.5702Z" fill="var(--fill-0, #9945FF)"/>
<path id="Vector_6" d="M0.875192 9.66511L0.81289 9.92478C0.743871 10.2127 0.746558 10.4948 0.80975 10.7451C0.833504 10.8388 0.865779 10.928 0.906113 11.0115C0.92897 11.059 0.954066 11.1052 0.9823 11.1487C0.991263 11.1635 1.00068 11.177 1.01009 11.1904C1.05491 11.2555 1.10555 11.3151 1.16157 11.368C1.24762 11.451 1.34667 11.5192 1.45602 11.5689C1.51877 11.5976 1.58554 11.6205 1.65501 11.6367L2.41331 11.4783L2.58137 11.4434L2.76245 11.4057L1.14095 8.56137L0.875192 9.66511Z" fill="var(--fill-0, #260246)"/>
<path id="Vector_7" d="M1.91937 7.41806L4.07462 11.197C4.22341 11.1871 4.37312 11.1827 4.5228 11.1836C4.67339 11.184 4.82488 11.1903 4.97681 11.2019L2.78659 7.36109C2.37784 7.3759 2.09414 7.39967 1.91937 7.41806Z" fill="var(--fill-0, #260246)"/>
<path id="Vector_8" d="M12.4695 8.33234C12.4377 8.32965 12.4063 8.32383 12.3767 8.31485C12.3588 8.30902 10.6652 7.79506 6.87631 7.49321C6.74454 7.4829 6.61009 7.4726 6.47341 7.46272C6.45143 7.46094 6.42993 7.45958 6.40841 7.45824C6.27038 7.44836 6.13592 7.43895 6.00507 7.43087C5.73795 7.41383 5.48519 7.39994 5.24541 7.38873C5.17146 7.38514 5.0993 7.382 5.02804 7.37929C4.85954 7.37212 4.69818 7.36629 4.54401 7.36136C4.40553 7.35734 4.27288 7.35419 4.14559 7.35195C3.99232 7.34925 3.84712 7.3479 3.70952 7.34746H3.68442L5.96696 11.3507C6.66746 11.5099 7.35406 11.7826 8.01108 12.1683L9.7352 13.1805C10.7727 13.3433 11.8353 12.654 12.0827 11.6103L12.7675 8.71938C12.8137 8.5234 12.6797 8.34939 12.4695 8.33234Z" fill="var(--fill-0, #260246)"/>
<path id="Vector_9" d="M1.70187 7.44649C1.68126 7.45052 1.66108 7.45142 1.64136 7.45008C1.51498 7.43976 1.38321 7.55412 1.34691 7.70481L1.14076 8.56189L2.76224 11.4062L3.17771 11.3192C3.456 11.2613 3.73746 11.2214 4.0216 11.2008C4.03908 11.1994 4.05701 11.1981 4.07449 11.1972L1.91922 7.41825C1.77402 7.43393 1.70456 7.44559 1.70187 7.44649Z" fill="var(--fill-0, white)"/>
<path id="Vector_10" d="M3.68415 7.34762C3.52639 7.34718 3.37895 7.34762 3.24135 7.34986C3.17502 7.35076 3.11138 7.3521 3.04999 7.35345C2.95677 7.35569 2.86892 7.35839 2.78646 7.36108L4.97668 11.2019C5.17119 11.2158 5.36704 11.2391 5.56288 11.2714C5.69778 11.2939 5.83223 11.3203 5.96669 11.3508L3.68415 7.34762Z" fill="var(--fill-0, white)"/>
</g>
</svg>
