<svg width="96" height="96" viewBox="0 0 96 96" fill="none" xmlns="http://www.w3.org/2000/svg">
<path d="M95.6956 72.4408C95.6956 74.9017 89.3488 77.1098 79.3064 78.6052C72.6856 79.595 64.4606 80.2742 55.3864 80.5178C52.9815 80.5817 50.5129 80.6153 48.0015 80.6153C42.5618 80.6153 37.3383 80.4599 32.4678 80.1706C31.1466 80.0945 29.8529 80.0061 28.5897 79.9087C28.4801 79.8996 28.3735 79.8935 28.264 79.8843C24.3432 79.5767 20.7025 79.1838 17.4362 78.7148C6.96477 77.2164 0.304443 74.9626 0.304443 72.4408C0.304443 69.6419 8.49601 67.175 20.9917 65.6979C22.2033 65.5548 23.4543 65.4208 24.7451 65.2989C26.3127 65.1497 27.9352 65.0126 29.6063 64.8939C30.1878 64.8512 30.7783 64.8117 31.3749 64.7751C33.3811 64.6441 35.4539 64.5406 37.5788 64.4583C37.5808 64.4603 37.5828 64.4603 37.5847 64.4583C38.2606 64.4339 38.9424 64.4096 39.6273 64.3883C42.3457 64.306 45.1431 64.2634 48.0015 64.2634C52.8751 64.2634 57.5751 64.3883 62.001 64.6228C67.3738 64.903 72.3417 65.3446 76.7221 65.9111C77.9336 66.0664 79.1025 66.2339 80.2196 66.4106C80.3262 66.4258 80.4328 66.4441 80.5393 66.4623C81.1938 66.5658 81.8299 66.6755 82.448 66.7821C90.6516 68.2531 95.6956 70.248 95.6956 72.4408Z" fill="#161618"/>
<path d="M48.0016 80.9198C42.6588 80.9198 37.4266 80.7699 32.4497 80.4746C31.1794 80.4014 29.8726 80.3131 28.5661 80.2123L28.2385 80.1876C24.3092 79.8795 20.6597 79.4854 17.3933 79.0163C10.8973 78.0866 0 75.9963 0 72.4406C0 70.9241 1.97476 69.5256 5.86959 68.2833C9.47072 67.1349 14.6875 66.1362 20.956 65.3953C22.215 65.2466 23.4801 65.1121 24.7165 64.9959C26.3586 64.8394 27.9966 64.7029 29.5846 64.5902C30.1666 64.547 30.7585 64.5075 31.356 64.4709C33.296 64.3442 35.3281 64.2407 37.5669 64.1539C37.5713 64.1536 37.5755 64.1544 37.5794 64.1536C38.2539 64.1292 38.9343 64.1051 39.6177 64.0837C42.3562 64.0007 45.177 63.9587 48.0016 63.9587C52.7939 63.9587 57.5095 64.0798 62.017 64.3183C67.3161 64.5949 72.277 65.0289 76.761 65.6088C77.9525 65.7617 79.132 65.9301 80.2673 66.1097C80.3615 66.1231 80.4605 66.1397 80.5595 66.1567L80.5904 66.1617C81.2426 66.265 81.8803 66.375 82.4998 66.4821C88.6595 67.5864 96 69.5164 96 72.4406C96 73.9295 93.8371 76.7491 79.3514 78.9063C72.5627 79.9211 64.2783 80.5837 55.3944 80.8223C52.9574 80.8871 50.4699 80.9198 48.0016 80.9198ZM37.5547 64.7639C35.3653 64.8489 33.293 64.9548 31.3947 65.0788C30.7983 65.1154 30.2088 65.155 29.6286 65.1975C28.0444 65.3102 26.4115 65.4462 24.7739 65.602C23.542 65.7183 22.2816 65.8521 21.0274 66.0002C5.97274 67.7797 0.608808 70.494 0.608808 72.4406C0.608808 74.6689 6.91568 76.9017 17.4795 78.4132C20.7334 78.8804 24.3699 79.2733 28.2879 79.5805L28.6152 79.6052C29.9157 79.7055 31.2184 79.7935 32.4853 79.8667C37.4506 80.1614 42.671 80.3107 48.0016 80.3107C50.4645 80.3107 52.9464 80.278 55.3784 80.2132C64.2379 79.9755 72.4967 79.3152 79.2616 78.3037C94.228 76.0751 95.3912 73.2526 95.3912 72.4406C95.3912 71.5299 94.1248 69.185 82.3943 67.082C81.7792 66.9758 81.1445 66.8663 80.4917 66.7628L80.4575 66.7572C80.3636 66.7411 80.2703 66.7254 80.1769 66.712C79.0428 66.5326 77.8692 66.3652 76.6834 66.2132C72.2143 65.635 67.2692 65.2023 61.9852 64.9268C57.4878 64.6886 52.7832 64.5679 48.0016 64.5679C45.1829 64.5679 42.3687 64.6098 39.6365 64.6928C38.9634 64.7136 38.2934 64.7374 37.6287 64.7612C37.6043 64.7656 37.5791 64.7665 37.5547 64.7639Z" fill="#161618"/>
<path d="M54.2386 22.645C54.0287 22.5354 53.8156 22.4379 53.6025 22.3557C52.5097 21.9202 51.356 21.7923 50.251 21.9385C48.6285 22.1516 47.1065 22.9496 46.0106 24.2317C45.685 24.6124 45.3957 25.0358 45.1552 25.4988C44.9848 25.8246 44.8447 26.1566 44.7322 26.4947C44.5435 27.0611 44.4369 27.6398 44.4034 28.2154L48.1415 29.053C48.0532 28.4469 48.1476 27.8074 48.452 27.2226C48.4854 27.1556 48.5251 27.0916 48.5615 27.0277C49.0425 26.251 49.8279 25.7606 50.6772 25.6328C51.286 25.5414 51.9282 25.6358 52.5158 25.9434C53.0119 26.2023 53.4046 26.5769 53.6756 27.0155L55.0879 25.8734L55.2981 25.7028L56.5765 24.6704C55.986 23.8449 55.1976 23.1445 54.2386 22.645Z" fill="url(#paint0_linear_50026_212604)"/>
<path d="M48.1413 29.3575C48.119 29.3575 48.0967 29.3551 48.0747 29.3501L44.3369 28.5125C44.1915 28.4801 44.091 28.3469 44.0996 28.1978C44.1353 27.5816 44.2509 26.976 44.4436 26.3984C44.5616 26.0433 44.7102 25.693 44.8856 25.3578C45.1303 24.8864 45.4311 24.4408 45.7792 24.0336C46.9062 22.7155 48.4802 21.8642 50.2115 21.6367C51.3934 21.4803 52.6066 21.6308 53.7151 22.073C53.93 22.1557 54.1548 22.2577 54.3792 22.3749C55.3623 22.8871 56.1848 23.5997 56.8243 24.4932C56.9179 24.6243 56.8932 24.806 56.7678 24.9075L53.867 27.2523C53.799 27.3077 53.7119 27.3309 53.6245 27.3157C53.5382 27.3011 53.4624 27.25 53.4167 27.1756C53.1673 26.772 52.8073 26.4392 52.375 26.2135C51.8628 25.9455 51.2909 25.8485 50.7222 25.9342C49.9339 26.0528 49.2406 26.51 48.8203 27.1881L48.7932 27.2351C48.7694 27.2758 48.7454 27.3169 48.724 27.3594C48.4567 27.8728 48.3601 28.4417 48.4425 29.0092C48.457 29.1083 48.4216 29.2082 48.3482 29.2763C48.2914 29.329 48.2171 29.3575 48.1413 29.3575ZM44.7275 27.976L47.8054 28.6657C47.7971 28.1167 47.9246 27.5762 48.182 27.0819C48.207 27.032 48.2376 26.9793 48.268 26.9276L48.2974 26.8767C48.8173 26.0368 49.666 25.477 50.6318 25.3316C51.3295 25.2272 52.0299 25.3453 52.6571 25.6736C53.0819 25.8955 53.4509 26.203 53.7383 26.573L56.1569 24.6181C55.6007 23.9099 54.9093 23.3377 54.098 22.915C53.8935 22.8086 53.6902 22.7161 53.4931 22.6402C52.4776 22.2348 51.3706 22.0977 50.2909 22.2405C48.7088 22.4484 47.2709 23.2258 46.2418 24.4298C45.924 24.8016 45.6493 25.2085 45.4255 25.6391C45.2649 25.9464 45.1288 26.2664 45.0212 26.5909C44.8722 27.0373 44.7738 27.5022 44.7275 27.976Z" fill="#481B8F"/>
<path d="M56.893 29.7761C60.6112 29.7761 63.6253 26.7604 63.6253 23.0404C63.6253 19.3204 60.6112 16.3047 56.893 16.3047C53.1749 16.3047 50.1608 19.3204 50.1608 23.0404C50.1608 26.7604 53.1749 29.7761 56.893 29.7761Z" fill="url(#paint1_linear_50026_212604)"/>
<path d="M56.8929 30.0806C53.013 30.0806 49.8566 26.9222 49.8566 23.0403C49.8566 19.1583 53.013 16 56.8929 16C60.7729 16 63.9296 19.1583 63.9296 23.0403C63.9296 26.9222 60.7729 30.0806 56.8929 30.0806ZM56.8929 16.6091C53.3489 16.6091 50.4654 19.4941 50.4654 23.0403C50.4654 26.5864 53.3489 29.4714 56.8929 29.4714C60.4373 29.4714 63.3208 26.5864 63.3208 23.0403C63.3208 19.4941 60.4373 16.6091 56.8929 16.6091Z" fill="#481B8F"/>
<path d="M56.8931 26.4016C58.7485 26.4016 60.2526 24.8967 60.2526 23.0404C60.2526 21.1841 58.7485 19.6792 56.8931 19.6792C55.0378 19.6792 53.5337 21.1841 53.5337 23.0404C53.5337 24.8967 55.0378 26.4016 56.8931 26.4016Z" fill="#FDEEF9"/>
<path d="M56.893 26.706C54.8727 26.706 53.2291 25.0615 53.2291 23.0402C53.2291 21.019 54.8727 19.3745 56.893 19.3745C58.9135 19.3745 60.5571 21.019 60.5571 23.0402C60.5571 25.0615 58.9135 26.706 56.893 26.706ZM56.893 19.9836C55.2083 19.9836 53.8379 21.3547 53.8379 23.0402C53.8379 24.7257 55.2083 26.0968 56.893 26.0968C58.5776 26.0968 59.9483 24.7257 59.9483 23.0402C59.9483 21.3547 58.5776 19.9836 56.893 19.9836Z" fill="#481B8F"/>
<path d="M35.4935 72.6845C35.5482 75.6114 34.4798 78.2397 32.4678 80.1706C31.1465 80.0945 29.8528 80.0062 28.5896 79.9087C28.48 79.8996 28.3735 79.8935 28.2639 79.8843C24.3431 79.5767 20.7024 79.1839 17.4362 78.7148C17.7924 78.3128 18.1789 77.9078 18.5747 77.4935C20.0997 75.9007 21.7922 74.1251 22.5349 71.8317C22.681 71.3749 22.7937 70.8937 22.8546 70.3912C22.8607 70.3394 22.8668 70.2846 22.8759 70.2328C23.1651 68.0735 23.8013 66.4075 24.745 65.2989C25.2167 64.7416 25.7709 64.3243 26.3948 64.0564C26.9124 63.837 27.4663 63.7305 28.0508 63.7305C28.1208 63.7305 28.1939 63.7335 28.2669 63.7366C29.2593 63.7792 30.3216 64.1294 31.3748 64.7751C31.6245 64.9274 31.8741 65.0949 32.1207 65.2807C32.3642 65.4634 32.6017 65.6674 32.8239 65.8898C33.7097 66.7578 34.4098 67.909 34.8725 69.2126C35.253 70.2877 35.4721 71.4693 35.4935 72.6845Z" fill="url(#paint2_linear_50026_212604)"/>
<path d="M32.4678 80.4752C32.4618 80.4752 32.4562 80.4749 32.4502 80.4746C31.1794 80.4015 29.8726 80.3131 28.5661 80.2123L28.2385 80.1876C24.3092 79.8795 20.6596 79.4854 17.3932 79.0164C17.2823 79.0003 17.189 78.9248 17.1506 78.8198C17.112 78.7145 17.1343 78.5967 17.2086 78.5128C17.5808 78.0926 17.9919 77.6625 18.3549 77.283C19.8385 75.7331 21.5202 73.9765 22.2455 71.7375C22.3942 71.2721 22.4976 70.8063 22.5523 70.3545C22.5612 70.2805 22.5675 70.2296 22.5758 70.1811C22.871 67.9769 23.5235 66.2644 24.5131 65.1015C25.0146 64.509 25.6077 64.0629 26.2747 63.7764C26.8238 63.5436 27.421 63.4258 28.0506 63.4258C28.1252 63.4258 28.2028 63.4288 28.2807 63.4323C29.3265 63.4772 30.4517 63.8517 31.5337 64.5152C31.8007 64.6779 32.0602 64.8537 32.3037 65.0372C32.567 65.2353 32.8147 65.4494 33.0391 65.6743C33.9419 66.5588 34.6759 67.7479 35.1592 69.1104C35.5614 70.2472 35.7764 71.4476 35.7981 72.6792C35.8537 75.6677 34.7457 78.4063 32.6785 80.3904C32.6217 80.4449 32.5459 80.4752 32.4678 80.4752ZM18.0481 78.4938C21.1549 78.9256 24.5963 79.2912 28.2878 79.5806L28.6151 79.6053C29.8699 79.7019 31.1271 79.7873 32.3515 79.859C34.2341 78.0013 35.241 75.461 35.1893 72.6902C35.1687 71.5243 34.9657 70.3884 34.5855 69.3141C34.1328 68.0385 33.4499 66.9297 32.6107 66.1073C32.4041 65.9003 32.1785 65.7049 31.938 65.5238C31.71 65.3525 31.4671 65.188 31.2162 65.0348C30.2216 64.4248 29.1975 64.0813 28.254 64.0409C28.185 64.0379 28.1163 64.0349 28.0506 64.0349C27.5031 64.0349 26.9858 64.1363 26.5137 64.3368C25.9353 64.5851 25.4177 64.9753 24.9772 65.4958C24.0639 66.5686 23.4587 68.1759 23.1775 70.273C23.1692 70.3224 23.1647 70.3626 23.1599 70.4012C23.0975 70.9176 22.9857 71.4211 22.8249 71.9243C22.0565 74.2969 20.3237 76.1073 18.7948 77.7041C18.5579 77.9516 18.3005 78.2211 18.0481 78.4938Z" fill="#481B8F"/>
<path d="M80.6 68.4543C80.6214 71.9963 80.1495 75.3982 79.3063 78.6053C72.6855 79.5951 64.4605 80.2743 55.3864 80.5179C52.9814 80.5818 50.5128 80.6154 48.0014 80.6154C42.5617 80.6154 37.3382 80.46 32.4678 80.1707C31.1465 80.0946 29.8528 80.0062 28.5896 79.9088C27.5303 78.4956 26.2122 76.5099 24.885 74.1404C24.8789 74.1252 24.8728 74.1099 24.8636 74.0977C24.1909 72.8978 23.5182 71.6034 22.8759 70.2329C22.462 69.3497 22.06 68.436 21.6795 67.4979C21.439 66.9071 21.2078 66.3071 20.9917 65.698C19.5245 61.6534 18.5381 57.2769 18.6721 53.0588C18.7664 50.0801 19.6067 46.9676 20.9551 44.0925C21.3053 43.3432 21.6917 42.6123 22.1058 41.9027V41.8997H22.1088C22.6842 40.9129 23.3173 39.9718 23.9991 39.0946C24.1026 38.9606 24.2092 38.8267 24.3157 38.6926C26.0934 36.4906 28.1664 34.709 30.346 33.6461C30.4433 33.5973 30.5409 33.5517 30.6382 33.506C40.6228 28.767 53.4716 30.0644 63.3921 36.2044C64.1958 36.7039 64.981 37.2338 65.7452 37.7972H65.7483C66.08 38.0409 66.4088 38.2937 66.7345 38.5525C67.0298 38.784 67.322 39.0246 67.6111 39.2713C70.3569 41.5951 72.7433 44.3635 74.6002 47.537C78.4023 54.0333 80.1953 60.4291 80.5392 66.4625C80.5483 66.5964 80.5544 66.7304 80.5605 66.8644V66.8675C80.5696 67.0198 80.5758 67.1751 80.5788 67.3274C80.5939 67.7051 80.6 68.0797 80.6 68.4543Z" fill="url(#paint3_linear_50026_212604)"/>
<path d="M48.0015 80.9199C42.6587 80.9199 37.4264 80.77 32.4495 80.4747C31.1793 80.4015 29.8725 80.3132 28.566 80.2123C28.4786 80.2055 28.3986 80.1615 28.346 80.0913C27.1302 78.4694 25.8067 76.4089 24.6194 74.2892C24.6135 74.2785 24.6081 74.2675 24.6034 74.2562C24.6034 74.2559 24.6034 74.2556 24.6031 74.2556C24.6013 74.2526 24.5998 74.2496 24.598 74.2466C23.8807 72.9668 23.2083 71.66 22.6001 70.362C22.1687 69.4415 21.7642 68.5162 21.3973 67.6123C21.1372 66.9729 20.9104 66.3798 20.7047 65.7999C19.032 61.1886 18.2454 56.898 18.3679 53.0488C18.46 50.1325 19.2594 46.9909 20.6794 43.9631C21.0201 43.2341 21.4089 42.4936 21.8352 41.7619C21.8426 41.7479 21.851 41.7342 21.8602 41.7217C22.4407 40.7284 23.0793 39.7817 23.7588 38.9075C23.8486 38.791 23.942 38.6738 24.035 38.5563L24.0772 38.503C25.9408 36.1948 28.0618 34.4209 30.2126 33.3722C30.2982 33.3291 30.3868 33.2875 30.4754 33.2458L30.5083 33.2303C40.3602 28.5546 53.3312 29.6196 63.5523 35.9452C64.3647 36.4502 65.1548 36.9844 65.9007 37.5334C65.9105 37.5391 65.9197 37.5451 65.9283 37.5516C66.2464 37.7854 66.5814 38.0417 66.9236 38.3139C67.2081 38.5367 67.4982 38.7746 67.8089 39.0396C70.6638 41.4562 73.0375 44.2635 74.8628 47.3832C78.4603 53.53 80.4726 59.9433 80.843 66.445C80.8522 66.5779 80.8584 66.7141 80.8644 66.8509C80.8736 67.0053 80.8801 67.1647 80.8831 67.3212C80.8974 67.6778 80.9045 68.0501 80.9045 68.4538C80.925 71.872 80.4865 75.3135 79.6007 78.6824C79.5698 78.8002 79.4717 78.8882 79.3513 78.9064C72.5625 79.9212 64.2782 80.5838 55.3943 80.8223C52.9573 80.8872 50.4697 80.9199 48.0015 80.9199ZM28.7506 79.6157C30.0075 79.7118 31.2631 79.7962 32.4852 79.8667C37.4505 80.1615 42.6708 80.3108 48.0015 80.3108C50.4644 80.3108 52.9463 80.2781 55.3782 80.2132C64.1513 79.978 72.3348 79.3281 79.0626 78.3335C79.9006 75.0776 80.3156 71.7554 80.2957 68.4558V68.4541C80.2957 68.0588 80.2889 67.6941 80.2746 67.3393C80.2713 67.1849 80.2654 67.0339 80.2564 66.8857C80.2502 66.7463 80.2446 66.6148 80.2353 66.483C79.8703 60.0754 77.8857 53.754 74.3372 47.6907C72.5471 44.6308 70.2179 41.8764 67.4147 39.5039C67.1097 39.2436 66.8261 39.011 66.5467 38.7921C66.2173 38.5304 65.8971 38.2847 65.5924 38.0605C65.5826 38.0548 65.5734 38.0489 65.5642 38.042C64.824 37.4963 64.0389 36.9648 63.2315 36.463C53.1826 30.2433 40.4395 29.1911 30.7685 33.7809L30.7343 33.7969C30.6504 33.8365 30.5663 33.8761 30.4825 33.918C28.4081 34.9298 26.3588 36.6462 24.5525 38.8837L24.5118 38.9352C24.4203 39.0503 24.329 39.1654 24.2401 39.2808C23.571 40.1415 22.9425 41.074 22.3715 42.0531C22.3673 42.0605 22.3626 42.0676 22.3578 42.0745C21.9419 42.7883 21.5629 43.5104 21.2309 44.2216C19.8453 47.175 19.0658 50.234 18.9761 53.0681C18.8563 56.8397 19.6307 61.0539 21.2778 65.594C21.4812 66.1672 21.7044 66.7519 21.9612 67.383C22.3242 68.2774 22.7243 69.1926 23.1512 70.1033C23.7517 71.384 24.4149 72.6739 25.1224 73.937C25.1397 73.9635 25.151 73.9879 25.159 74.0066C26.3047 76.0505 27.5761 78.0358 28.7506 79.6157Z" fill="#481B8F"/>
<path d="M55.3863 80.5176C52.9814 80.5816 50.5127 80.6151 48.0014 80.6151C42.5616 80.6151 37.3381 80.4598 32.4677 80.1704C31.1465 80.0943 29.8527 80.006 28.5895 79.9085C28.4799 79.8994 28.3734 79.8933 28.2638 79.8841C27.1953 78.3035 26.0113 76.3421 24.8849 74.1401C24.8788 74.1249 24.8727 74.1097 24.8635 74.0975C24.2883 72.9676 23.7312 71.7737 23.2107 70.5342C25.9077 69.788 30.1329 68.9504 34.8724 69.2124C41.6301 69.59 49.4412 72.2032 55.3863 80.5176Z" fill="#FDEEF9"/>
<path d="M48.0015 80.8952C42.6593 80.8952 37.4274 80.7453 32.4511 80.45C31.1811 80.3768 29.8743 80.2885 28.5681 80.1876L28.2405 80.163C28.1564 80.1558 28.0797 80.1112 28.0324 80.041C26.8407 78.2785 25.6665 76.2819 24.6361 74.2678C24.6344 74.2645 24.6296 74.2535 24.626 74.2452C24.6219 74.2383 24.618 74.2315 24.6144 74.2246C24.0184 73.0537 23.4592 71.8485 22.953 70.6425C22.9218 70.5684 22.9242 70.4846 22.9592 70.412C22.9943 70.3397 23.0588 70.2859 23.1361 70.2645C25.8591 69.5114 30.1092 68.6679 34.8878 68.9332C43.5684 69.4183 50.5414 73.2613 55.6137 80.3551C55.6738 80.4393 55.6827 80.5496 55.6366 80.6424C55.5905 80.7349 55.4972 80.7947 55.3938 80.7974C52.9567 80.8622 50.4698 80.8952 48.0015 80.8952ZM28.4201 79.6154L28.613 79.63C29.9139 79.7305 31.2168 79.8185 32.4838 79.8914C37.4497 80.1862 42.6703 80.3355 48.0015 80.3355C50.2855 80.3355 52.5854 80.3075 54.8471 80.2519C49.9056 73.5762 43.1831 69.9572 34.8569 69.4918C30.3274 69.2422 26.2818 70.0012 23.593 70.7201C24.0585 71.8102 24.5666 72.8972 25.1055 73.9564C25.124 73.9861 25.1353 74.0132 25.1424 74.031C26.1326 75.9651 27.267 77.899 28.4201 79.6154Z" fill="#481B8F"/>
<path d="M83.7375 59.9334C84.0049 63.3286 83.0134 65.7601 82.3403 66.9812C82.0208 67.5598 81.7732 67.867 81.7652 67.8769C81.4693 68.2133 80.7774 68.4211 80.3689 68.5111C80.3288 68.0279 80.2844 67.5483 80.2332 67.0754C80.3154 67.1861 80.3625 67.2492 80.3678 67.2562C80.4098 67.3137 80.4789 67.3414 80.5446 67.3347C80.5774 67.3314 80.6094 67.3206 80.6389 67.2994C80.726 67.2362 80.7439 67.1153 80.6822 67.028C80.6719 67.0155 80.4824 66.7543 80.1485 66.3177C80.0146 66.1428 79.8568 65.9403 79.6785 65.7141C78.6618 64.421 76.9619 62.3559 74.9951 60.3648C74.9213 59.7584 63.411 51.5609 63.0283 51.7553C62.5045 51.4377 62.1049 51.1993 61.8529 51.0501C63.0905 49.8348 63.9919 48.325 64.4643 46.6418L66.2242 40.3731L66.3378 39.9648L66.9842 37.6665C67.5321 38.0134 69.0858 39.0284 71.1252 40.6229C74.2476 43.0663 78.5143 46.8727 82.0702 51.7365C82.1879 52.0775 83.4071 55.6848 83.7422 59.936L83.7375 59.9334Z" fill="#9751F7"/>
<path d="M80.0946 68.8834L80.0657 68.5364C80.0256 68.0557 79.9816 67.5787 79.9305 67.1084L79.8576 66.4389C79.7358 66.2801 79.5954 66.1005 79.4394 65.903C78.3755 64.5494 76.7036 62.5275 74.7788 60.5788L74.7057 60.5048L74.6988 60.4494C74.0787 59.583 64.3428 52.5767 63.0723 52.0743L63.0152 52.1035L62.8705 52.0157C62.3479 51.6987 61.9489 51.461 61.6977 51.312L61.3571 51.1101L61.6398 50.8326C62.8431 49.6509 63.7186 48.173 64.171 46.5592L66.8018 37.1904L67.147 37.409C67.721 37.7728 69.2763 38.7909 71.3126 40.383C74.3341 42.7475 78.6956 46.605 82.3158 51.5565L82.358 51.6371C82.4953 52.0351 83.7097 55.649 84.0459 59.9117L84.0872 60.4346L84.0723 60.4277C84.2135 63.6729 83.2287 66.0005 82.6068 67.1284C82.2703 67.7378 82.0117 68.0563 82.001 68.0694C81.6267 68.4953 80.8594 68.7148 80.4346 68.8085L80.0946 68.8834ZM80.5964 67.6352C80.6121 67.7984 80.627 67.962 80.6415 68.1265C81.0081 68.0176 81.3737 67.8609 81.5366 67.6756C81.5363 67.6756 81.7712 67.3821 82.0738 66.8339C82.6951 65.707 83.6984 63.3148 83.4338 59.9572L83.3928 59.4346C83.0221 55.6021 81.979 52.4134 81.7973 51.8789C78.2238 47.0018 73.9212 43.1975 70.9375 40.863C69.2454 39.5395 67.8913 38.6187 67.1657 38.1452L64.7572 46.724C64.3113 48.3143 63.4793 49.7803 62.3416 50.9864C62.5533 51.1128 62.814 51.2692 63.1187 51.4539C63.2248 51.4732 63.3488 51.5304 63.5117 51.6172C64.5441 52.168 74.1756 58.7497 75.2086 60.1538L75.2116 60.1505C77.1566 62.1198 78.8442 64.1604 79.9177 65.5258C80.0966 65.7528 80.2554 65.9565 80.3901 66.1326C80.6448 66.4651 80.8157 66.6965 80.8883 66.7947L80.9219 66.8402C81.0883 67.0757 81.0372 67.3868 80.8172 67.5462C80.7509 67.5938 80.6769 67.6236 80.5964 67.6352ZM80.61 67.0718L80.6112 67.0736C80.6109 67.073 80.6106 67.0724 80.61 67.0718Z" fill="#481B8F"/>
<path d="M68.7997 35.1873C68.5641 36.5334 66.3875 43.1029 65.7766 44.6635C64.186 48.7254 61.909 52.1532 56.8281 52.654C49.5894 53.3143 44.5637 40.9459 28.0863 43.3879C28.031 43.3675 21.6761 44.4574 21.6305 44.3844C19.9817 43.9163 17.5453 41.1062 16.9178 39.6514C17.4218 40.0496 19.3169 42.0095 19.9935 42.2016C20.0375 42.2723 26.3944 41.1827 26.4473 41.2048C42.9247 38.7628 47.9525 51.1316 55.1912 50.4712C60.2721 49.9705 62.5491 46.5426 64.1377 42.4805C64.6445 41.1834 66.2368 36.4257 66.8946 34.0842L66.1948 32.9038L66.552 29.5095L68.122 31.6079L68.401 31.9823L68.4027 31.9846C68.4196 32.012 68.4368 32.0372 68.4496 32.064C68.9211 32.8503 69.0364 33.833 68.7997 35.1873Z" fill="#C9C9C9"/>
<path d="M56.2697 52.9959C53.5696 52.9959 51.1477 51.3148 48.3724 49.389C43.7763 46.1998 38.0562 42.2304 28.1328 43.7008C28.1191 43.7029 28.1054 43.7041 28.0918 43.7041C27.95 43.7196 26.9907 43.8769 26.0623 44.0289C22.7736 44.5675 21.8571 44.718 21.548 44.6755L21.5444 44.6886C19.8149 44.1978 17.2943 41.3226 16.6275 39.7766C16.5705 39.6437 16.6106 39.4887 16.7253 39.4004C16.8401 39.3124 17.0003 39.3135 17.1139 39.4031C17.2711 39.5274 17.5324 39.7725 17.8633 40.083C18.4804 40.6621 19.6157 41.7271 20.0482 41.8871C20.4231 41.8586 22.7118 41.4841 24.2439 41.2331C25.6958 40.9955 26.1984 40.9131 26.4018 40.8967L26.4009 40.892C36.5732 39.3852 42.4068 43.4337 47.0953 46.6866C49.9696 48.6812 52.4542 50.4062 55.1623 50.1564C60.3259 49.6472 62.4484 45.9321 63.8435 42.3651C64.3399 41.0948 65.8709 36.5273 66.5534 34.1289L65.9229 33.0653C65.8881 33.0067 65.8732 32.9383 65.8804 32.8708L66.2377 29.4766C66.2514 29.3472 66.3429 29.2393 66.4684 29.2048C66.5923 29.1691 66.727 29.2155 66.8052 29.3202L68.6545 31.7935C68.6593 31.7998 68.6771 31.8274 68.6816 31.8343C68.7015 31.8655 68.7199 31.8961 68.7351 31.928C69.2357 32.7599 69.3596 33.8214 69.1111 35.2418C68.862 36.6656 66.6435 43.3169 66.0709 44.779C64.6042 48.5244 62.3628 52.4263 56.8591 52.9688C56.6612 52.9869 56.4647 52.9959 56.2697 52.9959ZM32.2871 42.7503C39.9157 42.7503 44.7397 46.0983 48.7327 48.8694C51.6067 50.8639 54.0889 52.5869 56.7994 52.3391C61.9612 51.8303 64.0855 48.1152 65.4823 44.5482C66.1063 42.9543 68.263 36.4199 68.488 35.133C68.7089 33.8707 68.6105 32.9472 68.1786 32.2269C68.1599 32.1912 68.1533 32.1823 68.1474 32.1724L66.7823 30.3448L66.5204 32.8327L67.1667 33.9228C67.2107 33.9974 67.2226 34.0867 67.1991 34.1699C66.532 36.544 64.9419 41.2914 64.4321 42.5956C62.9674 46.3413 60.7278 50.2435 55.2221 50.786C52.2842 51.0555 49.7107 49.2712 46.735 47.2062C42.1377 44.017 36.4198 40.0458 26.4936 41.5177C26.4797 41.5198 26.4654 41.521 26.4514 41.521C26.3043 41.5371 25.309 41.6998 24.3462 41.8574C21.1202 42.3856 20.2168 42.5325 19.9109 42.4924L19.907 42.5061C19.6077 42.421 19.1716 42.1022 18.6505 41.6549C19.5913 42.7512 20.7733 43.7948 21.6835 44.0702C22.0575 44.044 24.4891 43.6455 25.96 43.4046C27.3682 43.1741 27.8483 43.0953 28.0406 43.0789L28.04 43.075C29.5475 42.8517 30.9601 42.7503 32.2871 42.7503Z" fill="#481B8F"/>
<path d="M66.7254 29.7383C66.7223 29.7353 66.7192 29.7353 66.7192 29.7322L66.5549 29.513C66.5549 29.5109 66.5539 29.5099 66.5518 29.5099C66.4423 29.3698 66.3174 29.2389 66.1805 29.1109C65.2673 28.2643 63.9034 27.6247 62.3389 27.1222C62.3145 27.1131 62.2902 27.107 62.2628 27.1009C61.5231 26.8725 59.992 26.5526 58.0529 26.1963H58.0499C57.2006 26.038 56.2721 25.8735 55.2981 25.7029C55.1093 25.6724 54.9145 25.639 54.7227 25.6055C53.3346 25.371 51.8704 25.1334 50.4245 24.902C48.8995 24.6644 47.3926 24.436 46.0106 24.2319C43.8859 23.9212 42.0504 23.6715 40.8875 23.5405C26.9246 21.9842 22.401 22.6634 21.3356 22.7578C20.2702 22.8523 19.2505 23.5223 18.9096 24.7283L16.3495 33.722C15.6768 35.994 15.969 38.5462 17.2566 40.2974C17.2597 40.3035 17.2657 40.3096 17.2688 40.3157C17.2719 40.3218 17.2749 40.3249 17.2779 40.3309C17.9325 41.205 18.8365 41.872 19.9931 42.2009C19.9962 42.207 20.0358 42.204 20.1058 42.1979C20.2063 42.1888 20.3677 42.1675 20.5746 42.137C20.6994 42.1187 20.8424 42.1005 20.9946 42.0761C21.0465 42.0669 21.1012 42.0608 21.156 42.0518C21.427 42.0091 21.7314 41.9604 22.0571 41.9086C22.0722 41.9086 22.0905 41.9056 22.1058 41.9025V41.8995H22.1088C22.4224 41.8507 22.7512 41.7959 23.0798 41.7441C23.1498 41.732 23.2169 41.7228 23.2839 41.7106C23.3113 41.7076 23.3386 41.7015 23.366 41.6984C23.4269 41.6862 23.4878 41.6772 23.5486 41.6679C23.6157 41.6558 23.6825 41.6467 23.7496 41.6345C23.844 41.6192 23.9383 41.604 24.0327 41.5888C24.0509 41.5857 24.0691 41.5827 24.0874 41.5797C24.1635 41.5675 24.2367 41.5553 24.3096 41.5431C24.5836 41.5005 24.8455 41.4578 25.086 41.4183C25.165 41.403 25.2411 41.3908 25.3143 41.3786C25.3904 41.3665 25.4633 41.3573 25.5333 41.3452C25.6734 41.3208 25.8012 41.3025 25.9109 41.2843C26.1331 41.2477 26.2975 41.2233 26.3826 41.2111C26.4161 41.2081 26.4344 41.205 26.4436 41.205H26.4497C27.9381 40.9827 29.3323 40.8853 30.6443 40.8853C30.8574 40.8853 31.0704 40.8883 31.2775 40.8944C31.4906 40.8975 31.7007 40.9065 31.9076 40.9187C32.0841 40.9248 32.2546 40.937 32.4251 40.9492C32.5346 40.9584 32.6443 40.9645 32.7508 40.9766C32.8512 40.9827 32.9487 40.9919 33.0461 41.004C33.3108 41.0284 33.5696 41.0588 33.8254 41.0954C33.9684 41.1106 34.1115 41.132 34.2545 41.1563C34.2881 41.1593 34.3186 41.1624 34.352 41.1715C34.4828 41.1898 34.6137 41.2111 34.7447 41.2355C34.8725 41.2568 35.0003 41.2811 35.1282 41.3086C35.2865 41.336 35.4448 41.3665 35.6001 41.403C35.7582 41.4365 35.9136 41.47 36.0658 41.5066C36.6289 41.6406 37.1738 41.7959 37.7034 41.9664C37.8161 41.9999 37.9227 42.0335 38.0322 42.073C38.1966 42.1279 38.361 42.1858 38.5223 42.2436C38.6866 42.3015 38.8449 42.3624 39.0032 42.4233C39.1615 42.4842 39.3198 42.5482 39.475 42.6121C39.7217 42.7126 39.9621 42.8161 40.2026 42.9228C40.5435 43.0781 40.8784 43.2365 41.2041 43.3979C41.2985 43.4466 41.3897 43.4923 41.4811 43.541C41.758 43.6842 42.0321 43.8304 42.297 43.9765C42.5648 44.1258 42.8234 44.275 43.0792 44.4273C43.2102 44.5034 43.3349 44.5826 43.4627 44.6588C43.7337 44.8202 43.9986 44.9877 44.2603 45.1522C44.586 45.3623 44.9057 45.5724 45.2162 45.7795C45.3957 45.9014 45.5723 46.0201 45.7458 46.1389C45.7762 46.1602 45.8067 46.1785 45.834 46.1998C45.9558 46.2821 46.0745 46.3643 46.1933 46.4466C46.3394 46.547 46.4794 46.6445 46.6226 46.742C47.3958 47.281 48.1385 47.7988 48.8568 48.2678C49.0547 48.3957 49.2525 48.5237 49.4474 48.6424C49.4839 48.6667 49.5203 48.6881 49.5569 48.7094C49.6725 48.7825 49.7913 48.8556 49.9101 48.9256C50.4336 49.2363 50.9481 49.5104 51.4626 49.7419C51.5143 49.7662 51.5691 49.7906 51.6208 49.812C51.7243 49.8576 51.8248 49.8972 51.9253 49.9368C52.0561 49.9886 52.187 50.0373 52.3179 50.083C52.6224 50.1895 52.9268 50.2749 53.2341 50.3418C53.3802 50.3754 53.5234 50.3997 53.6695 50.4241C54.0773 50.485 54.4913 50.5094 54.9115 50.4911C55.0059 50.485 55.0971 50.4789 55.1915 50.4698C55.4593 50.4423 55.7211 50.4089 55.9738 50.3662C55.9889 50.3632 56.0042 50.3601 56.0194 50.3601C56.1169 50.3418 56.2143 50.3236 56.3086 50.3053C56.3482 50.2962 56.3847 50.2901 56.4243 50.281C56.5248 50.2596 56.6252 50.2383 56.7226 50.2139L56.7957 50.1956C56.8992 50.1683 56.9996 50.1408 57.1001 50.1134C57.1275 50.1043 57.1548 50.0982 57.1823 50.0891C57.2736 50.0616 57.365 50.0343 57.4533 50.0068C57.4775 49.9977 57.5019 49.9886 57.5263 49.9794C57.6236 49.9459 57.7211 49.9124 57.8185 49.8759C58.0407 49.7937 58.2568 49.7023 58.4668 49.6018C58.5704 49.5531 58.6739 49.5013 58.7743 49.4495C58.8748 49.3977 58.9753 49.3429 59.0727 49.2851C59.1488 49.2424 59.2217 49.1997 59.2949 49.1541C59.3405 49.1267 59.3861 49.0993 59.4288 49.0688C59.5018 49.0231 59.5719 48.9774 59.6418 48.9287C59.7332 48.8678 59.8245 48.8038 59.9127 48.7369C60.0893 48.6059 60.2598 48.4688 60.4272 48.3257C60.6403 48.1399 60.8442 47.948 61.0391 47.744C61.1365 47.6404 61.2308 47.5368 61.3252 47.4333C61.4196 47.3267 61.5109 47.2201 61.5992 47.1105C62.0467 46.5623 62.4455 45.9653 62.8077 45.3319C62.8777 45.2039 62.9507 45.076 63.0207 44.9451C63.2277 44.5552 63.4226 44.1532 63.6083 43.742C63.6722 43.605 63.7331 43.4679 63.7909 43.3279C63.9097 43.0477 64.0253 42.7674 64.138 42.4812C64.2141 42.2863 64.3144 42.0121 64.4332 41.6801C64.4546 41.6162 64.4788 41.5522 64.5032 41.4853C64.5032 41.4792 64.5063 41.47 64.5093 41.4639C64.5427 41.3786 64.5732 41.2872 64.6037 41.1959C64.6249 41.135 64.6463 41.0741 64.6676 41.0132C64.6766 40.9919 64.6829 40.9736 64.6888 40.9523C64.7163 40.867 64.7468 40.7817 64.7771 40.6964C64.8381 40.5229 64.902 40.3401 64.9629 40.1544C65.0146 40.0021 65.0664 39.8467 65.1211 39.6883C65.1425 39.6274 65.1607 39.5696 65.182 39.5117C65.2186 39.393 65.2581 39.2741 65.3008 39.1523C65.3615 38.9696 65.4225 38.7838 65.4834 38.6011C65.5442 38.4183 65.602 38.2355 65.663 38.0529C65.666 38.0498 65.666 38.0437 65.6691 38.0376C65.6964 37.9584 65.7208 37.8762 65.7483 37.797C65.7635 37.7513 65.7756 37.7087 65.7908 37.663C65.8335 37.529 65.8761 37.398 65.9186 37.2671C65.9552 37.1483 65.9947 37.0295 66.0313 36.9138C66.1288 36.6031 66.2262 36.2986 66.3174 36.0062C66.5427 35.2814 66.7436 34.6144 66.8928 34.0783C67.0267 33.6063 67.1211 33.2316 67.1606 33.0063C67.4133 31.5657 67.2672 30.5485 66.7254 29.7383Z" fill="#9751F7"/>
<path d="M54.6403 50.8128C54.2993 50.8128 53.9604 50.7872 53.6227 50.7367C53.4655 50.7108 53.3162 50.6852 53.1634 50.6501C52.8445 50.5805 52.5237 50.4898 52.2137 50.3815C52.0787 50.3343 51.9437 50.284 51.8091 50.2308C51.705 50.1897 51.6007 50.1487 51.4931 50.1011C51.4446 50.0814 51.3843 50.0547 51.3278 50.0279C50.8272 49.8025 50.3091 49.53 49.7487 49.1975C49.628 49.1264 49.5064 49.0515 49.3881 48.9765C49.3563 48.9584 49.3135 48.9331 49.2713 48.9048C49.0858 48.7924 48.8854 48.6627 48.6854 48.5334C47.9603 48.0602 47.2228 47.5456 46.4419 47.001L46.0141 46.7069C45.8872 46.6189 45.7736 46.5403 45.6574 46.4621C45.6277 46.4398 45.6152 46.4321 45.6027 46.4237L45.0388 46.041C44.7317 45.8363 44.4133 45.6272 44.0887 45.4179L44.0239 45.3771C43.7867 45.2278 43.5462 45.0764 43.3009 44.9304L43.1377 44.8313C43.0661 44.7876 42.9944 44.7436 42.9204 44.7005C42.6645 44.5482 42.4082 44.4004 42.1431 44.2526C41.8821 44.1086 41.6104 43.9635 41.3363 43.8219C41.2756 43.7898 41.2189 43.7606 41.1612 43.7312L41.0589 43.6788C40.7411 43.5212 40.4094 43.3645 40.0714 43.2104C39.8371 43.1066 39.5996 43.0043 39.3559 42.9049C39.2016 42.8413 39.0455 42.7782 38.8897 42.7182C38.7346 42.6584 38.5791 42.5986 38.4177 42.5421C38.2563 42.4838 38.0939 42.427 37.9319 42.3726C37.8211 42.3327 37.7197 42.3012 37.613 42.2694C37.0496 42.0882 36.5217 41.9398 35.9925 41.8143C35.8424 41.778 35.6902 41.7453 35.5351 41.7126C35.3787 41.6757 35.2265 41.6463 35.0743 41.6201C34.9387 41.5912 34.8157 41.5677 34.6923 41.5472C34.5606 41.5225 34.4343 41.5023 34.3082 41.4845C34.2957 41.4827 34.2832 41.4803 34.2711 41.477C34.2559 41.4729 34.2416 41.4726 34.2265 41.4711C34.0648 41.4446 33.928 41.4244 33.7916 41.4095C33.5303 41.3723 33.2764 41.3426 33.0172 41.3188C32.9164 41.3063 32.8257 41.2977 32.7321 41.2923C32.6483 41.2831 32.5805 41.278 32.5124 41.273L32.3989 41.2644C32.236 41.2528 32.0689 41.2406 31.8962 41.2346C31.6866 41.2224 31.4815 41.2135 31.2731 41.2105C29.719 41.1644 28.1191 41.2751 26.4963 41.5178C26.4808 41.5201 26.4654 41.5213 26.4496 41.5213L26.4107 41.5258C26.3432 41.5359 26.1815 41.56 25.9624 41.596L25.8128 41.6201C25.7424 41.6311 25.6672 41.6427 25.5875 41.6567C25.5444 41.6641 25.5004 41.6706 25.4555 41.6772L25.3295 41.6968C25.27 41.7066 25.2088 41.7167 25.1455 41.7286C24.8961 41.77 24.6333 41.8125 24.3586 41.8556L23.6041 41.9791C23.5402 41.9889 23.484 41.9972 23.4281 42.0085L23.3776 42.0162C23.3577 42.0195 23.3378 42.0228 23.3182 42.0249C23.2994 42.0293 23.2581 42.0356 23.2162 42.0421L22.7082 42.1239C22.534 42.1522 22.3615 42.1801 22.193 42.2063C22.1841 42.209 22.1749 42.2111 22.1656 42.2128C22.1422 42.2173 22.116 42.2212 22.0913 42.2232L21.0503 42.3874C20.9412 42.405 20.8419 42.4187 20.7497 42.4314L20.6201 42.4496C20.4061 42.4814 20.2381 42.5034 20.1338 42.5126C20.0622 42.5192 19.9703 42.5269 19.885 42.4987C18.7182 42.1623 17.7562 41.4969 17.025 40.5205C17.0157 40.5083 17.0074 40.4952 17.0003 40.4818C15.6893 38.697 15.3237 36.0726 16.0463 33.6319L18.6055 24.6417C18.956 23.4021 19.9914 22.5595 21.3077 22.4426C21.3776 22.4363 21.4626 22.4274 21.5646 22.417C25.74 21.9866 32.2529 22.2597 40.9225 23.226C42.0459 23.3524 43.8209 23.5918 46.0563 23.9187C47.4398 24.123 48.9473 24.3517 50.4729 24.5891C51.9212 24.8211 53.3864 25.0587 54.7755 25.2934C54.9673 25.3267 55.1608 25.3603 55.3484 25.3903C56.3225 25.5611 57.2473 25.7249 58.0937 25.8826C58.0993 25.8832 58.105 25.8841 58.11 25.885C60.2197 26.2725 61.6484 26.58 62.3562 26.7986C62.3723 26.801 62.41 26.8111 62.4475 26.8248C64.2275 27.3965 65.5227 28.0695 66.3955 28.8788C66.5543 29.0269 66.6851 29.1673 66.7953 29.308C66.7998 29.3127 66.8037 29.3178 66.8075 29.3232L66.9591 29.5251C66.9698 29.5367 66.9797 29.5492 66.9883 29.5623C67.5813 30.4495 67.735 31.561 67.4722 33.0609C67.4309 33.2952 67.3385 33.6664 67.197 34.1646C67.0578 34.664 66.8691 35.2975 66.6197 36.0999L66.2876 37.1495C66.2653 37.2191 66.2424 37.2896 66.221 37.3601L65.9678 38.1408L65.966 38.1462C65.9639 38.1515 65.9618 38.1572 65.9597 38.1628L65.6009 39.2517C65.5578 39.3748 65.5195 39.4896 65.4844 39.6047L65.2623 40.2558C65.2017 40.4408 65.1372 40.6255 65.0753 40.801C65.0435 40.8911 65.0153 40.9702 64.9897 41.0496C64.9841 41.071 64.974 41.1002 64.9597 41.1347L64.9017 41.3004C64.872 41.3908 64.8417 41.4818 64.8087 41.5665C64.806 41.5758 64.8033 41.5847 64.8001 41.5933L64.7831 41.6397C64.7656 41.6873 64.7486 41.7337 64.7329 41.7804C64.611 42.1221 64.5093 42.399 64.4326 42.5962C64.3185 42.8859 64.202 43.1685 64.0819 43.4513C64.0236 43.5926 63.9609 43.7342 63.8949 43.8757C63.7014 44.3046 63.5007 44.7154 63.3 45.0934C63.2575 45.1728 63.2147 45.2498 63.1719 45.3266L63.0851 45.4833C62.6901 46.1742 62.2852 46.7702 61.8443 47.3104C61.7537 47.4225 61.6597 47.5325 61.5619 47.6429L61.5328 47.6747C61.446 47.7699 61.3592 47.8651 61.2697 47.9602C61.0759 48.1631 60.869 48.36 60.635 48.564C60.4522 48.7201 60.2783 48.859 60.1011 48.9908C60.0108 49.0595 59.9139 49.127 59.8175 49.1916C59.748 49.2397 59.674 49.2882 59.5964 49.3367C59.5628 49.3614 59.5102 49.3935 59.4569 49.4253C59.3853 49.4702 59.308 49.5154 59.2275 49.5607C59.1311 49.6178 59.0253 49.6761 58.9192 49.7308C58.8154 49.784 58.7084 49.8376 58.6011 49.8881C58.3859 49.991 58.1588 50.0871 57.9284 50.1725C57.8291 50.2096 57.7289 50.2441 57.6284 50.2783L57.5663 50.3021L57.2735 50.3917C57.2637 50.3952 57.2447 50.4006 57.2259 50.4059C57.22 50.4077 57.1894 50.4169 57.1831 50.4184L56.8011 50.5201C56.6986 50.546 56.5939 50.5683 56.4896 50.5903L56.0773 50.6709C56.0583 50.6745 56.0389 50.6763 56.0196 50.6763C55.7791 50.7197 55.5166 50.7542 55.2235 50.7843C55.1269 50.7938 55.0348 50.7997 54.9396 50.8063C54.8398 50.8104 54.7399 50.8128 54.6403 50.8128ZM34.4126 40.8605C34.5425 40.8789 34.6727 40.9 34.8026 40.9241C34.9292 40.9455 35.0618 40.9708 35.1944 40.9991C35.3466 41.0252 35.5113 41.0571 35.6727 41.0951C35.8264 41.1273 35.9845 41.1618 36.1394 41.1989C36.6837 41.3283 37.2274 41.4809 37.8005 41.6653C37.9123 41.6986 38.0244 41.7337 38.1397 41.7753C38.2991 41.8286 38.4661 41.8872 38.6293 41.9458C38.7943 42.0038 38.9557 42.0659 39.1169 42.1281C39.2774 42.1899 39.4382 42.2548 39.5955 42.3196C39.844 42.4207 40.0874 42.5254 40.3306 42.6334C40.6781 42.7916 41.0158 42.9513 41.3446 43.1143L41.4486 43.1679C41.5096 43.1988 41.5696 43.2294 41.63 43.2616C41.9058 43.4043 42.1823 43.5518 42.4495 43.6994C42.7215 43.8507 42.9826 44.0015 43.2412 44.1553C43.3164 44.199 43.3919 44.2454 43.4674 44.2915L43.6247 44.3867C43.8744 44.5357 44.119 44.6895 44.3604 44.8415L44.4285 44.8843C44.7587 45.0972 45.0801 45.3081 45.3916 45.516L45.9529 45.897C45.9793 45.9146 46.0049 45.9318 46.0287 45.9505C46.1289 46.0172 46.2445 46.0972 46.3598 46.1769L46.8004 46.48C47.5801 47.0239 48.3138 47.5355 49.0296 48.0028C49.2237 48.1286 49.4193 48.2547 49.612 48.3719C49.6542 48.4001 49.6845 48.4177 49.7151 48.4352C49.8388 48.5131 49.9544 48.5845 50.0704 48.6526C50.6114 48.9738 51.1087 49.2356 51.5924 49.4533C51.6441 49.4777 51.6937 49.4997 51.7404 49.5187C51.848 49.5663 51.9446 49.6044 52.041 49.6422C52.1685 49.6927 52.2957 49.74 52.4224 49.7843C52.708 49.8843 53.0038 49.9678 53.3014 50.0327C53.4447 50.0654 53.5814 50.0886 53.7208 50.1118C54.1123 50.1701 54.5095 50.1921 54.8977 50.1748C54.9863 50.1692 55.0722 50.1635 55.1605 50.1549C55.4388 50.1264 55.6879 50.0933 55.9215 50.0541C55.9394 50.0505 55.959 50.0472 55.9798 50.0455L56.3532 49.9726C56.456 49.9509 56.5523 49.9304 56.6457 49.9069L57.0173 49.8081C57.0187 49.8069 57.0381 49.8016 57.0577 49.7959C57.0607 49.795 57.0886 49.787 57.0916 49.7861L57.4144 49.6832C57.5185 49.6475 57.613 49.6148 57.7078 49.5794C57.9215 49.5003 58.1305 49.4122 58.3303 49.3165C58.4326 49.2683 58.5324 49.2183 58.6296 49.1681C58.7245 49.1193 58.8196 49.0675 58.9112 49.0128C58.9893 48.9688 59.0583 48.9289 59.1273 48.8858C59.1713 48.8593 59.2096 48.8367 59.245 48.8112C59.3297 48.7576 59.396 48.7145 59.4617 48.6687C59.5524 48.6083 59.6386 48.5479 59.7212 48.4849C59.8898 48.36 60.0524 48.2297 60.2218 48.0848C60.4388 47.8957 60.6324 47.7119 60.8107 47.5251C60.8963 47.4341 60.981 47.341 61.0661 47.2482L61.0919 47.2199C61.1799 47.1203 61.2679 47.0174 61.3535 46.9115C61.773 46.3973 62.1585 45.8295 62.5334 45.1746L62.6196 45.0187C62.6606 44.945 62.7019 44.8706 62.7424 44.7954C62.9359 44.4307 63.1306 44.0319 63.3203 43.6116C63.3836 43.4754 63.4427 43.3427 63.4986 43.2071C63.6175 42.9264 63.7323 42.6486 63.8441 42.3651C63.919 42.173 64.0183 41.902 64.1354 41.5734C64.1508 41.5273 64.1699 41.4752 64.1898 41.4214L64.2026 41.386C64.2088 41.3646 64.2159 41.3441 64.224 41.3277C64.2463 41.2691 64.2739 41.185 64.3018 41.1008L64.3696 40.9083C64.3708 40.9039 64.3869 40.8587 64.3881 40.8545C64.4157 40.7695 64.4457 40.6847 64.476 40.5996C64.5391 40.4197 64.6024 40.2391 64.6624 40.0556L64.8467 39.5131C64.8595 39.4754 64.872 39.4385 64.8857 39.4016C64.9175 39.2957 64.9585 39.1732 65.0028 39.0474L65.3631 37.9526C65.3655 37.9457 65.3682 37.9389 65.3708 37.932L65.4065 37.8232C65.4208 37.7795 65.4347 37.7357 65.4499 37.6926L65.6182 37.1692C65.639 37.1007 65.6627 37.0276 65.6859 36.955L66.0159 35.9114C66.2632 35.1158 66.4505 34.4882 66.5882 33.9933C66.7225 33.521 66.8126 33.1614 66.8492 32.9514C67.0834 31.6166 66.9687 30.6848 66.4767 29.935C66.4731 29.9305 66.4698 29.9263 66.4666 29.9219L66.309 29.7122C66.3069 29.7098 66.3049 29.7071 66.3028 29.7045C66.2115 29.5879 66.1012 29.4692 65.9651 29.3422C65.1624 28.5977 63.9442 27.9699 62.2424 27.4232C62.2192 27.4149 62.2082 27.4125 62.1957 27.4098C61.4968 27.1954 60.0583 26.8864 58.0098 26.5098C58.0036 26.5089 57.9976 26.5081 57.992 26.5072C57.1439 26.3489 56.2167 26.1848 55.2437 26.0143C55.0579 25.9843 54.8615 25.9507 54.6688 25.9171C53.283 25.6827 51.8195 25.4457 50.3745 25.214C48.8516 24.9769 47.3459 24.7488 45.9645 24.5445C43.7364 24.2188 41.9683 23.9803 40.852 23.8548C32.2276 22.8932 25.7596 22.6213 21.6294 23.0464C21.5238 23.0571 21.4358 23.0663 21.3636 23.0725C20.5417 23.1457 19.5455 23.6415 19.2138 24.8142L16.6537 33.8083C15.9848 36.0675 16.3139 38.4808 17.5116 40.1098C17.5166 40.1169 17.5217 40.1243 17.5264 40.1318C17.5297 40.1368 17.533 40.1422 17.5363 40.1475C17.5377 40.1493 17.5389 40.1514 17.5404 40.1535C18.1822 41.0056 19.0238 41.5883 20.0425 41.8857C20.0529 41.8848 20.0645 41.8839 20.0779 41.8827C20.1745 41.8741 20.3294 41.8533 20.5283 41.8238L20.6629 41.8048C20.7512 41.7926 20.8461 41.7795 20.9448 41.7637C20.9721 41.7587 21.0057 41.7539 21.0402 41.7492L22.0072 41.596C22.0134 41.5951 22.0194 41.5942 22.0256 41.5936C22.0414 41.5894 22.0574 41.5865 22.0741 41.5847C22.248 41.5576 22.4266 41.5285 22.6071 41.4993L23.2272 41.3994C23.2287 41.3991 23.2712 41.3929 23.2724 41.3926C23.2923 41.3893 23.3122 41.386 23.3318 41.3839C23.3699 41.375 23.4356 41.3649 23.5016 41.3548L24.2578 41.2311C24.534 41.1879 24.795 41.1454 25.0346 41.1061C25.0952 41.0942 25.1618 41.0832 25.226 41.0725L25.364 41.0511C25.4035 41.0455 25.4418 41.0398 25.4793 41.0333C25.5625 41.0187 25.6416 41.0065 25.7153 40.9949L25.8586 40.972C26.0851 40.9348 26.2516 40.9101 26.3381 40.8976L26.3851 40.8926C26.3913 40.892 26.4047 40.8908 26.4172 40.8899C27.8477 40.677 29.2698 40.5687 30.6444 40.5687C30.8608 40.5687 31.0769 40.572 31.2871 40.5782C31.4999 40.5812 31.7145 40.5901 31.9262 40.6026C32.0992 40.6088 32.2734 40.621 32.4479 40.6335L32.5591 40.6422C32.6358 40.6478 32.7122 40.6538 32.7868 40.6621C32.8769 40.6671 32.9812 40.677 33.0853 40.69C33.3454 40.7138 33.6093 40.7448 33.8703 40.7819C34.0089 40.7968 34.1581 40.8188 34.3076 40.8444C34.3308 40.8456 34.3689 40.8501 34.4126 40.8605Z" fill="#481B8F"/>
<path d="M54.0734 47.9878C52.4011 47.7492 50.5103 46.437 48.321 44.9178C44.8855 42.5337 40.6099 39.5666 34.3824 38.6778C31.7717 38.3051 28.9808 38.3337 26.0871 38.7625L26.0968 38.7634C25.7376 38.8082 25.1321 38.9072 23.9621 39.099C22.914 39.2706 21.1321 39.5624 20.284 39.6862C19.75 39.4444 19.3225 39.036 19.0099 38.4678C18.4112 37.3801 18.2979 35.8304 18.7139 34.4237C18.7164 34.4157 21.2821 25.4031 21.2821 25.4031C21.2966 25.3522 21.3294 25.2364 21.5512 25.2169C21.6329 25.2097 21.733 25.1996 21.8534 25.1874C25.8401 24.7793 32.1521 25.051 40.6142 25.9948C42.89 26.25 45.1005 26.5302 47.1827 26.8274C49.3859 27.1419 51.5274 27.4871 53.5484 27.8535C54.3175 28.0254 55.2287 28.2033 56.1923 28.3916C58.0621 28.7571 60.1815 29.1712 61.9894 29.677C62.3193 29.7693 62.616 29.8585 62.8826 29.9441C64.0491 30.3184 64.7053 31.5546 64.3576 32.7299C64.1779 33.3376 62.0409 41.2781 61.3728 42.8391C60.0433 45.9447 58.183 47.6957 54.9488 48.0144C54.6715 48.0395 54.3794 48.0315 54.0734 47.9878Z" fill="#280046"/>
<path d="M54.6311 48.3448C54.4331 48.3448 54.2319 48.3302 54.0288 48.3011C52.2818 48.0516 50.3626 46.7197 48.1408 45.1776C44.7317 42.8122 40.4906 39.8692 34.3377 38.9909C32.2181 38.6881 29.977 38.653 27.6577 38.8859L26.136 39.0771C25.7805 39.1218 25.1529 39.2244 24.0132 39.4111C22.9475 39.5854 21.1781 39.8751 20.3297 39.9991L20.2379 40.0125L20.1535 39.9745C19.5565 39.7041 19.0785 39.2485 18.7328 38.6203C18.0949 37.4612 17.9715 35.8189 18.4109 34.3339C18.4254 34.2827 20.9781 25.3166 20.9781 25.3166C21.0699 24.9891 21.3595 24.9163 21.5239 24.9017C21.6035 24.8946 21.7022 24.8845 21.8214 24.8726C25.8295 24.4612 32.164 24.734 40.6493 25.6804C42.9279 25.9358 45.1411 26.2163 47.2273 26.514C49.4313 26.829 51.5769 27.1746 53.6046 27.5422C54.3882 27.7168 55.294 27.8938 56.253 28.0811C58.1356 28.4494 60.2578 28.864 62.0744 29.3726C62.4086 29.4659 62.7088 29.5561 62.9787 29.6426C64.2992 30.0664 65.0537 31.4917 64.6607 32.8197C64.628 32.93 64.5302 33.2851 64.3878 33.8009C63.7383 36.1553 62.2174 41.6686 61.6633 42.9636C60.2085 46.3622 58.1472 48.0168 54.9798 48.3291C54.8651 48.3395 54.7485 48.3448 54.6311 48.3448ZM30.634 38.1016C31.9322 38.1016 33.1991 38.1893 34.4269 38.3645C40.7278 39.2639 45.0373 42.2542 48.5002 44.6571C50.6572 46.154 52.5193 47.4463 54.118 47.6747C54.3942 47.7143 54.6638 47.722 54.9206 47.6994C57.8672 47.4088 59.7108 45.9178 61.0819 42.7143C61.6193 41.4589 63.1321 35.9747 63.7784 33.6328C63.9223 33.1111 64.0213 32.7522 64.0543 32.64C64.3506 31.6392 63.7817 30.5646 62.7858 30.2452C62.5227 30.161 62.2302 30.0727 61.9044 29.9817C60.1116 29.4802 58.0027 29.068 56.1418 28.7039C55.1686 28.5139 54.2586 28.336 53.4795 28.162C51.472 27.7986 49.3343 27.4542 47.1381 27.1404C45.0581 26.8436 42.8512 26.564 40.5792 26.3091C32.1382 25.3681 25.8491 25.0965 21.8853 25.5019C21.7635 25.5144 21.6624 25.5245 21.5798 25.5319C21.578 25.5322 21.5759 25.5322 21.5741 25.5325C19.8788 31.4881 19.0191 34.5072 19.0173 34.5135C18.624 35.8421 18.7274 37.2989 19.2869 38.3151C19.5488 38.7913 19.9005 39.1423 20.333 39.3594C21.1095 39.244 22.5179 39.0147 23.5361 38.8481L23.4317 38.8386L25.449 38.5379C25.6327 38.5091 25.7846 38.4865 25.9116 38.4689L26.0406 38.4496C27.6051 38.2176 29.1402 38.1016 30.634 38.1016Z" fill="#481B8F"/>
<path d="M27.6851 62.5922C27.7787 62.9104 27.9131 63.2023 28.0824 63.4686C29.0919 65.0854 31.3137 65.7891 33.2699 65.9316C35.3438 66.0896 37.8295 65.6587 39.5771 64.4252C40.4384 63.8171 41.1191 63.0141 41.4852 61.9898C41.8474 60.975 41.7328 59.9049 40.6618 59.6619C39.0083 59.2858 38.7641 61.1158 36.6521 61.1019C35.6714 61.0961 34.2903 60.6914 32.1789 59.488C29.7192 58.0842 27.0057 60.3008 27.6851 62.5922Z" fill="#6D0000"/>
<path d="M34.1343 66.2691C33.8391 66.2691 33.543 66.2581 33.2466 66.2354C32.0516 66.1483 29.1291 65.7197 27.8244 63.63C27.6377 63.3365 27.4924 63.0156 27.3934 62.6786C27.0477 61.5124 27.4641 60.2873 28.4802 59.4813C29.5902 58.6006 31.0656 58.5019 32.3295 59.2237C34.1765 60.276 35.5912 60.7908 36.6539 60.7974H36.6759C37.6123 60.7974 38.1352 60.3953 38.6412 60.0065C39.192 59.5827 39.7613 59.1458 40.7295 59.3647C41.1983 59.4712 41.5562 59.7278 41.7646 60.1071C42.0443 60.6165 42.047 61.3214 41.772 62.0921C41.4052 63.1182 40.7259 63.9869 39.753 64.6743C38.3068 65.6947 36.2556 66.2691 34.1343 66.2691ZM30.5861 59.3543C29.897 59.3543 29.2885 59.6175 28.8583 59.9586C28.0411 60.607 27.7034 61.5829 27.9772 62.5058V62.5064C28.0602 62.7889 28.182 63.0575 28.3393 63.3052C29.1434 64.5928 30.9942 65.4604 33.2921 65.6281C35.0582 65.7617 37.5942 65.452 39.4019 64.1764C40.2705 63.5631 40.8752 62.7928 41.1989 61.8871C41.4111 61.292 41.423 60.7501 41.231 60.4003C41.1055 60.1719 40.8975 60.0277 40.5948 59.9589C39.9046 59.801 39.5309 60.0904 39.0122 60.4895C38.4801 60.8985 37.8189 61.4065 36.6759 61.4065H36.6501C35.4803 61.3994 33.9684 60.8584 32.0281 59.7528C31.5317 59.4694 31.0412 59.3543 30.5861 59.3543Z" fill="#481A8F"/>
<path d="M28.0824 63.4689C29.0919 65.0856 31.3138 65.7893 33.2699 65.9319C35.3438 66.0898 37.8296 65.659 39.5771 64.4254C39.4541 64.4426 39.334 64.4565 39.2153 64.4687C36.939 64.6915 35.4848 63.8949 32.9137 63.456C31.9203 63.2853 30.6642 63.1488 29.2623 63.1723C28.9391 63.1788 28.6591 63.228 28.4216 63.3108C28.2976 63.3541 28.1835 63.4074 28.0824 63.4689Z" fill="#FF2D00"/>
<path d="M34.1342 66.2691C33.839 66.2691 33.543 66.2581 33.2466 66.2355C32.0516 66.1484 29.1291 65.7198 27.8244 63.6301C27.781 63.5608 27.7673 63.4772 27.7863 63.3981C27.8051 63.3187 27.855 63.2503 27.9246 63.2081C28.0441 63.1358 28.1775 63.0736 28.3211 63.0234C28.5979 62.9267 28.9124 62.8746 29.256 62.8675C30.4832 62.8467 31.7332 62.9436 32.9651 63.1557C33.8607 63.3086 34.6378 63.5082 35.3233 63.6842C36.6227 64.0182 37.7449 64.3052 39.1857 64.1655C39.2996 64.1539 39.4161 64.1402 39.5356 64.1238C39.6733 64.103 39.8088 64.1827 39.8605 64.3136C39.912 64.4444 39.8674 64.5935 39.7526 64.6743C38.3067 65.6948 36.2555 66.2691 34.1342 66.2691ZM28.5405 63.5917C29.4261 64.7202 31.1681 65.4732 33.2918 65.6282C34.7187 65.7364 36.6459 65.555 38.2862 64.8106C37.1809 64.7903 36.2333 64.5468 35.172 64.2743C34.4648 64.0926 33.7338 63.9049 32.8625 63.7559C31.6675 63.5504 30.4552 63.4552 29.2673 63.4766C28.9968 63.482 28.7522 63.5209 28.5405 63.5917Z" fill="#481A8F"/>
<path d="M32.6872 61.8864C32.8439 62.8659 35.0181 63.3906 35.6656 62.2756C35.8391 61.9783 35.9615 61.6957 36.0304 61.4141C36.0596 61.2952 36.0797 61.177 36.0889 61.0581C35.3274 60.9509 34.3564 60.6313 33.0787 59.9761C33.0495 60.0351 33.0218 60.094 32.9929 60.1577C32.9904 60.164 32.9879 60.1718 32.9839 60.1798C32.9823 60.18 32.9825 60.1815 32.9826 60.183C32.9234 60.3303 32.7943 60.6657 32.7197 61.052C32.6902 61.2078 32.669 61.3706 32.6645 61.5321C32.663 61.6519 32.6691 61.7711 32.6872 61.8864Z" fill="#FDEEF9"/>
<path d="M34.3944 63.2064C34.2303 63.2064 34.0689 63.1903 33.917 63.1621C33.2327 63.0348 32.494 62.6059 32.3867 61.9346C32.3867 61.9343 32.3867 61.934 32.3864 61.9337C32.3671 61.8094 32.3584 61.6767 32.3602 61.528C32.365 61.3606 32.3852 61.183 32.4206 60.9953C32.4764 60.7062 32.5683 60.4005 32.694 60.0849C32.7 60.0671 32.7074 60.0498 32.7163 60.0335C32.7482 59.9609 32.7764 59.9008 32.8058 59.841C32.8421 59.7679 32.906 59.7123 32.9833 59.687C33.0612 59.6611 33.145 59.6676 33.2175 59.7051C34.3614 60.2916 35.3418 60.6456 36.1314 60.7565C36.2904 60.7788 36.4049 60.9213 36.3924 61.0816C36.382 61.2154 36.3603 61.3481 36.3258 61.4873C36.2521 61.7894 36.1219 62.0976 35.9283 62.4292C35.5945 63.0041 34.978 63.2064 34.3944 63.2064ZM32.9878 61.8385C33.0389 62.1559 33.4765 62.4607 34.0282 62.5633C34.516 62.6546 35.1331 62.5859 35.4025 62.1226C35.5663 61.8418 35.6748 61.5869 35.7345 61.3418C35.7375 61.3305 35.7402 61.3195 35.7426 61.3082C35.0145 61.1649 34.1863 60.8633 33.2279 60.3919C33.1325 60.6426 33.0621 60.8835 33.0184 61.1095C32.9892 61.2642 32.9726 61.4096 32.969 61.5402C32.9675 61.6497 32.9738 61.7487 32.9878 61.8385Z" fill="#481A8F"/>
<path d="M29.3622 61.5974C29.5469 62.5026 32.3675 62.8149 32.5841 61.8819C32.6037 61.7975 32.6325 61.674 32.6645 61.5319C32.6903 61.4286 32.7167 61.313 32.7459 61.1941C32.8351 60.8173 32.9348 60.3983 32.993 60.1575C33.0197 60.0464 33.0386 59.9729 33.042 59.9572C32.7689 59.8171 32.4822 59.6596 32.179 59.488C32.0105 59.3905 31.8387 59.3116 31.6681 59.248C31.6671 59.2481 31.666 59.2477 31.6649 59.2467C31.3238 59.1195 30.9815 59.0569 30.6497 59.0502C30.2393 59.0403 29.8446 59.1152 29.4811 59.2553C29.4112 59.4633 29.3431 59.7141 29.3029 60.0103C29.2396 60.4435 29.2343 60.9718 29.3622 61.5974Z" fill="#FDEEF9"/>
<path d="M31.3177 62.751C31.3008 62.751 31.2835 62.751 31.2663 62.7507C30.4684 62.74 29.2235 62.4402 29.0641 61.6583C28.9443 61.073 28.9232 60.5037 29.002 59.9663C29.038 59.6977 29.1007 59.4321 29.1925 59.1582C29.2217 59.0722 29.2871 59.0035 29.3718 58.9708C29.7871 58.8108 30.2232 58.7364 30.6569 58.7453C31.0326 58.7531 31.4078 58.8256 31.7711 58.961C31.7749 58.9625 31.7788 58.964 31.7827 58.9657C31.9735 59.0371 32.1578 59.124 32.3314 59.2245C32.6281 59.3919 32.9114 59.5478 33.1807 59.6861C33.3026 59.7485 33.3677 59.8848 33.3401 60.0189L33.2886 60.2286C33.231 60.4692 33.1311 60.8877 33.0425 61.2639L32.8805 61.9507C32.7636 62.4536 32.181 62.751 31.3177 62.751ZM29.7258 59.491C29.6697 59.6792 29.6301 59.8636 29.6049 60.051C29.5359 60.5218 29.5549 61.0203 29.6604 61.5364C29.7157 61.807 30.4328 62.1303 31.2743 62.1416C31.8861 62.149 32.2482 61.9825 32.2877 61.8127L32.4506 61.1206C32.5353 60.7622 32.6308 60.3615 32.6896 60.1165C32.478 60.0043 32.2583 59.8827 32.0291 59.7533C31.8802 59.6671 31.7241 59.5936 31.5624 59.5335C31.5591 59.5323 31.5558 59.5311 31.5529 59.5296C31.2556 59.4196 30.9497 59.3607 30.6435 59.3545C30.3338 59.3452 30.0246 59.3928 29.7258 59.491Z" fill="#481A8F"/>
<path d="M26.9592 57.503C26.574 57.503 26.1905 57.4397 25.8195 57.3147C23.5516 56.5516 22.2642 53.6511 22.9491 50.8488C23.5139 48.5405 25.2728 46.9285 27.2265 46.9285C27.6115 46.9285 27.9949 46.9918 28.3659 47.1164C30.6338 47.8796 31.9216 50.7801 31.2364 53.5824C30.6716 55.8907 28.9129 57.503 26.9592 57.503Z" fill="#9751F7"/>
<path d="M27.2262 47.2329C27.572 47.2329 27.9223 47.2887 28.269 47.4053C30.3941 48.1203 31.5901 50.8535 30.9404 53.5101C30.3966 55.7334 28.7329 57.1983 26.959 57.1983C26.6131 57.1983 26.2629 57.1426 25.9162 57.0259C23.7912 56.311 22.5952 53.5777 23.2449 50.9211C23.7886 48.6979 25.4523 47.2329 27.2262 47.2329ZM27.2262 46.6238C25.1318 46.6238 23.2514 48.3314 22.6535 50.7763C21.9315 53.7285 23.3081 56.7911 25.7222 57.6033C26.1248 57.7387 26.5409 57.8074 26.959 57.8074C29.0534 57.8074 30.9338 56.0999 31.5318 53.6549C32.2538 50.7027 30.8771 47.6401 28.4631 46.828C28.0604 46.6925 27.6443 46.6238 27.2262 46.6238Z" fill="#481B8F"/>
<path d="M26.7776 55.3591C28.1749 55.5191 29.4527 54.2366 29.6299 52.5025C29.755 51.2631 29.2854 50.1202 28.4944 49.5137C28.3163 49.3765 28.1222 49.2662 27.9139 49.1894C27.755 49.1295 27.5884 49.0891 27.4156 49.0687C27.3608 49.0621 27.3056 49.0573 27.25 49.0544C25.9196 49.01 24.7323 50.2582 24.5634 51.9253C24.4563 52.9794 24.7822 53.9638 25.369 54.6098C25.5261 54.7824 25.7033 54.9313 25.8941 55.0485C26.1153 55.1868 26.3554 55.2832 26.6123 55.335C26.6663 55.3454 26.7212 55.352 26.7776 55.3591Z" fill="#280046"/>
<path d="M25.8789 50.8706C25.1944 50.9653 24.5626 50.4872 24.468 49.802C24.3733 49.1169 24.8516 48.4843 25.5363 48.3896C26.2208 48.2949 26.8526 48.773 26.9472 49.4582C27.0419 50.1434 26.5636 50.7759 25.8789 50.8706Z" fill="#FDEEF9"/>
<path d="M59.811 64.0379C58.5467 64.0379 57.4849 63.6497 57.4132 63.6229C57.2557 63.5641 57.176 63.3889 57.2346 63.2315C57.2931 63.0745 57.467 62.9942 57.6261 63.0522C57.6519 63.0623 60.2382 64.0036 61.9451 62.8556C62.9172 62.2025 63.4383 60.9806 63.4945 59.2247C63.7005 52.7539 66.1378 50.0751 67.5724 49.054C68.8548 48.1415 70.3204 47.8474 71.5936 48.2435C73.4013 48.8078 75.1944 50.4581 76.3897 52.6582C76.47 52.806 76.4153 52.991 76.2676 53.0713C76.1204 53.1513 75.9349 53.0969 75.8546 52.9491C74.7333 50.885 73.0725 49.3431 71.4122 48.8253C70.321 48.4842 69.0507 48.7492 67.9253 49.5504C65.6405 51.1764 64.2472 54.7098 64.1027 59.2443C64.0403 61.2088 63.4276 62.5945 62.2822 63.363C61.5138 63.8787 60.6208 64.0379 59.811 64.0379Z" fill="#481B8F"/>
<path d="M71.7624 55.5934C71.606 55.5934 71.4728 55.4735 71.4594 55.3147C71.2644 53.0213 70.0965 51.624 70.0846 51.61C69.9758 51.4821 69.9909 51.29 70.1188 51.1808C70.2466 51.072 70.438 51.0865 70.5471 51.2141C70.6006 51.276 71.8536 52.7646 72.0659 55.263C72.0801 55.4307 71.9559 55.5779 71.7885 55.5922C71.7796 55.5931 71.771 55.5934 71.7624 55.5934Z" fill="#481B8F"/>
<path d="M69.8536 57.3623C69.7112 57.3623 69.584 57.2621 69.5554 57.1169C69.1083 54.8595 67.7935 53.5996 67.7801 53.5871C67.6579 53.472 67.6517 53.2793 67.7667 53.1568C67.8821 53.0345 68.0738 53.0277 68.1963 53.1425C68.2561 53.1984 69.6654 54.5389 70.1523 56.9986C70.185 57.1636 70.078 57.3239 69.913 57.3563C69.8931 57.3605 69.8732 57.3623 69.8536 57.3623Z" fill="#481B8F"/>
<path d="M68.2508 59.6728C68.122 59.6728 68.0022 59.5905 67.9609 59.4614C67.2588 57.2697 65.8084 56.1683 65.7938 56.1573C65.6595 56.0568 65.6312 55.8661 65.7314 55.7314C65.8313 55.5964 66.0212 55.5678 66.1565 55.668C66.2222 55.7165 67.7757 56.8875 68.5406 59.2752C68.592 59.4355 68.5037 59.6071 68.3438 59.6583C68.3129 59.6681 68.2814 59.6728 68.2508 59.6728Z" fill="#481B8F"/>
<path d="M57.3295 64.8745C57.3295 64.8745 63.0915 67.7326 65.2215 61.7217C68.1255 53.5269 73.3076 52.1154 75.8121 53.871C80.1712 56.9269 81.3988 68.106 72.205 71.8063C67.4248 73.7302 64.2223 73.297 58.9832 72.1933" fill="url(#paint4_linear_50026_212604)"/>
<path d="M65.8535 73.4426C63.8071 73.4426 61.6587 73.0682 58.9206 72.4915C58.7562 72.457 58.6506 72.2952 58.6854 72.1307C58.7199 71.9662 58.8816 71.8606 59.046 71.8954C64.4551 73.0343 67.5051 73.3698 72.0914 71.524C77.2681 69.4402 78.4857 65.2564 78.7505 62.9475C79.1596 59.3841 77.8504 55.6717 75.6372 54.1206C74.7017 53.4645 73.4107 53.3301 72.0953 53.7509C69.4246 54.6054 67.0236 57.5478 65.5084 61.8235C64.8532 63.6729 63.7949 64.9045 62.3635 65.4845C59.9203 66.4752 57.3046 65.202 57.1943 65.1472C57.0439 65.0726 56.9824 64.8903 57.057 64.7395C57.1316 64.5887 57.3141 64.5274 57.4645 64.6015C57.4892 64.614 59.9527 65.8081 62.1388 64.9185C63.3998 64.4061 64.3407 63.2964 64.9346 61.6201C67.097 55.5182 70.2332 53.7072 71.9101 53.1706C73.4086 52.6915 74.8947 52.856 75.9868 53.6215C78.3718 55.2933 79.7883 59.2449 79.3555 63.0171C79.0752 65.4604 77.788 69.8876 72.3185 72.0891C69.9243 73.0527 67.9421 73.4426 65.8535 73.4426Z" fill="#481B8F"/>
<path d="M31.0461 25.7535L19.6927 38.4327C19.6552 38.3705 19.6152 38.3052 19.5757 38.237C19.0056 37.2296 18.8873 35.7871 19.2606 34.4754C19.2613 34.4698 19.7463 32.701 20.271 30.7831L24.8594 25.6622C26.6219 25.6034 28.6871 25.6333 31.0461 25.7535Z" fill="#FDEEF9"/>
<path d="M26.2896 38.3617C26.2349 38.3686 26.1829 38.3759 26.1278 38.3857L26.1362 38.3868C25.8047 38.4308 25.2482 38.5273 24.1697 38.7163C23.4217 38.847 22.2679 39.0487 21.4224 39.1892L33.2812 25.9478C34.4968 26.029 35.7832 26.131 37.1351 26.253L26.2896 38.3617Z" fill="#FDEEF9"/>
<path d="M42.5979 54.2526C42.5545 54.2526 42.5102 54.2434 42.4683 54.2234C38.8172 52.4987 35.6263 52.3738 35.5945 52.3726C35.4626 52.3684 35.3481 52.2789 35.3118 52.1516C35.2759 52.0243 35.3258 51.8884 35.4358 51.8149C35.6174 51.6939 39.9258 48.844 43.5111 48.5272C43.6812 48.51 43.8265 48.6364 43.8411 48.8038C43.856 48.9713 43.732 49.1191 43.5646 49.1339C41.0004 49.3606 37.9391 51.0145 36.5396 51.8464C37.7777 52.0011 40.1181 52.4395 42.7281 53.6726C42.8803 53.7446 42.9451 53.926 42.8735 54.078C42.8215 54.188 42.7121 54.2526 42.5979 54.2526Z" fill="#481B8F"/>
<defs>
<linearGradient id="paint0_linear_50026_212604" x1="58.8723" y1="27.7131" x2="45.8843" y2="24.4805" gradientUnits="userSpaceOnUse">
<stop stop-color="#00FA96"/>
<stop offset="0.51" stop-color="#00E0B8"/>
<stop offset="1" stop-color="#00B4CB"/>
</linearGradient>
<linearGradient id="paint1_linear_50026_212604" x1="66.9417" y1="20.6133" x2="51.1163" y2="24.4318" gradientUnits="userSpaceOnUse">
<stop stop-color="#00FA96"/>
<stop offset="0.51" stop-color="#00E0B8"/>
<stop offset="1" stop-color="#00B4CB"/>
</linearGradient>
<linearGradient id="paint2_linear_50026_212604" x1="37.66" y1="70.1114" x2="20.8795" y2="74.1326" gradientUnits="userSpaceOnUse">
<stop stop-color="#00FA96"/>
<stop offset="0.51" stop-color="#00E0B8"/>
<stop offset="1" stop-color="#00B4CB"/>
</linearGradient>
<linearGradient id="paint3_linear_50026_212604" x1="18.6599" y1="55.6271" x2="80.6007" y2="55.6271" gradientUnits="userSpaceOnUse">
<stop stop-color="#00FA96"/>
<stop offset="0.51" stop-color="#00E0B8"/>
<stop offset="1" stop-color="#00B4CB"/>
</linearGradient>
<linearGradient id="paint4_linear_50026_212604" x1="34.2602" y1="42.4018" x2="76.9238" y2="68.9318" gradientUnits="userSpaceOnUse">
<stop stop-color="#00FA96"/>
<stop offset="0.51" stop-color="#00E0B8"/>
<stop offset="1" stop-color="#00B4CB"/>
</linearGradient>
</defs>
</svg>
