<svg preserveAspectRatio="none" width="100%" height="100%" overflow="visible" style="display: block;" viewBox="0 0 9.53047 5.77021" fill="none" xmlns="http://www.w3.org/2000/svg">
<g id="Group">
<path id="Vector" fill-rule="evenodd" clip-rule="evenodd" d="M5.47809 5.47775C5.29058 5.66502 5.03642 5.7702 4.77142 5.7702C4.50642 5.7702 4.25225 5.66502 4.06475 5.47775L0.292751 1.70708C0.105243 1.51949 -6.24843e-05 1.26509 2.78157e-08 0.999849C6.25399e-05 0.73461 0.105488 0.48026 0.293084 0.292752C0.480681 0.105244 0.735081 -6.24843e-05 1.00032 2.78156e-08C1.26556 6.25399e-05 1.51991 0.105488 1.70742 0.293085L4.77142 3.35708L7.83542 0.293085C8.02393 0.110836 8.27649 0.00992084 8.53869 0.0120748C8.80089 0.0142288 9.05175 0.119279 9.23725 0.304601C9.42274 0.489922 9.52803 0.740686 9.53043 1.00288C9.53283 1.26508 9.43216 1.51773 9.25009 1.70642L5.47875 5.47842L5.47809 5.47775Z" fill="var(--fill-0, #7A7A83)"/>
</g>
</svg>
