<svg preserveAspectRatio="none" width="100%" height="100%" overflow="visible" style="display: block;" viewBox="0 0 13.3333 13.3333" fill="none" xmlns="http://www.w3.org/2000/svg">
<g id="Group">
<path id="Vector" fill-rule="evenodd" clip-rule="evenodd" d="M6.66667 0C10.3487 0 13.3333 2.98467 13.3333 6.66667C13.3333 9.53333 11.524 11.9773 8.98533 12.9187C8.94241 12.9422 8.89703 12.961 8.85 12.9747L8.78667 12.9893C8.10327 13.218 7.38729 13.3341 6.66667 13.3333C2.98467 13.3333 0 10.3487 0 6.66667C0 2.98467 2.98467 0 6.66667 0ZM8.60667 1.69733L8.48933 2.28467C8.41371 2.66268 8.23045 3.01078 7.96161 3.28707C7.69276 3.56336 7.3498 3.75607 6.974 3.842L6.70667 3.90333C6.54085 3.94114 6.39574 4.04089 6.30106 4.18218C6.20637 4.32346 6.16927 4.49559 6.19733 4.66333L6.314 5.362C6.35117 5.58595 6.33054 5.81568 6.25408 6.02942C6.17761 6.24317 6.04784 6.43385 5.87706 6.58341C5.70627 6.73296 5.50013 6.83643 5.27816 6.88402C5.05619 6.93161 4.82575 6.92173 4.60867 6.85533L3.74867 6.59267C3.33903 6.46745 2.98043 6.21402 2.72563 5.8697C2.47084 5.52537 2.33333 5.10834 2.33333 4.68V3.55667C1.7021 4.4355 1.35311 5.48554 1.3327 6.56739C1.31229 7.64923 1.62143 8.71169 2.21906 9.61371C2.81669 10.5157 3.67455 11.2146 4.67874 11.6176C5.68293 12.0206 6.78594 12.1086 7.84133 11.87L7.454 10.5153C7.42272 10.4064 7.36422 10.3073 7.284 10.2273L6.45867 9.40133C6.35919 9.30191 6.28181 9.18263 6.23156 9.05127C6.18132 8.91991 6.15935 8.77943 6.16709 8.63901C6.17483 8.49858 6.2121 8.36136 6.27647 8.23632C6.34085 8.11128 6.43087 8.00122 6.54067 7.91333L7.584 7.07933C7.7829 6.92021 8.02323 6.8214 8.27653 6.79458C8.52983 6.76776 8.78552 6.81406 9.01333 6.928L9.99333 7.418C10.2878 7.56525 10.5413 7.78292 10.7315 8.05168C10.9216 8.32044 11.0425 8.63199 11.0833 8.95867L11.1567 9.546C11.5827 8.88139 11.8559 8.13051 11.9566 7.34753C12.0574 6.56455 11.9831 5.76898 11.7392 5.01818C11.4952 4.26738 11.0877 3.58006 10.546 3.0058C10.0043 2.43154 9.34196 1.98464 8.60667 1.69733ZM8.41667 8.12067L7.66467 8.722L8.22733 9.284C8.43275 9.48967 8.59086 9.73765 8.69067 10.0107L8.736 10.1493L9.098 11.4147C9.33133 11.2947 9.55533 11.158 9.76733 11.0067L9.976 10.8493L9.76067 9.124C9.74876 9.02897 9.71651 8.93762 9.66612 8.85617C9.61573 8.77472 9.54839 8.70508 9.46867 8.652L9.39667 8.61067L8.41667 8.12067ZM6.66667 1.33333C5.59481 1.33166 4.54756 1.65448 3.66267 2.25933C3.66533 2.28333 3.66667 2.308 3.66667 2.33333V4.68C3.66654 4.8228 3.71227 4.96187 3.79712 5.07673C3.88198 5.19158 4.00147 5.27616 4.138 5.318L4.99867 5.58067L4.882 4.882C4.79815 4.37906 4.90955 3.86309 5.19344 3.43955C5.47733 3.01601 5.91226 2.71689 6.40933 2.60333L6.67667 2.54267C6.80209 2.514 6.91654 2.44964 7.00621 2.35738C7.09588 2.26511 7.15693 2.14886 7.182 2.02267L7.31267 1.372C7.0983 1.34618 6.88258 1.33327 6.66667 1.33333Z" fill="var(--fill-0, #F9F9FA)"/>
</g>
</svg>
