<svg preserveAspectRatio="none" width="100%" height="100%" overflow="visible" style="display: block;" viewBox="0 0 13.3333 13.3333" fill="none" xmlns="http://www.w3.org/2000/svg">
<g id="Group">
<path id="Vector" d="M6.66667 0C10.3487 0 13.3333 2.98467 13.3333 6.66667C13.3333 10.3487 10.3487 13.3333 6.66667 13.3333C2.98467 13.3333 0 10.3487 0 6.66667C0 2.98467 2.98467 0 6.66667 0ZM6.66667 1.33333C5.25218 1.33333 3.89562 1.89524 2.89543 2.89543C1.89524 3.89562 1.33333 5.25218 1.33333 6.66667C1.33333 8.08115 1.89524 9.43771 2.89543 10.4379C3.89562 11.4381 5.25218 12 6.66667 12C8.08115 12 9.43771 11.4381 10.4379 10.4379C11.4381 9.43771 12 8.08115 12 6.66667C12 5.25218 11.4381 3.89562 10.4379 2.89543C9.43771 1.89524 8.08115 1.33333 6.66667 1.33333ZM6.66667 9.33333C6.84348 9.33333 7.01305 9.40357 7.13807 9.52859C7.26309 9.65362 7.33333 9.82319 7.33333 10C7.33333 10.1768 7.26309 10.3464 7.13807 10.4714C7.01305 10.5964 6.84348 10.6667 6.66667 10.6667C6.48986 10.6667 6.32029 10.5964 6.19526 10.4714C6.07024 10.3464 6 10.1768 6 10C6 9.82319 6.07024 9.65362 6.19526 9.52859C6.32029 9.40357 6.48986 9.33333 6.66667 9.33333ZM6.66667 3C7.22819 3.00002 7.77217 3.19557 8.20519 3.55307C8.6382 3.91056 8.93321 4.40769 9.03954 4.95905C9.14587 5.51041 9.05688 6.08159 8.78786 6.57447C8.51884 7.06736 8.08658 7.45117 7.56533 7.66C7.48852 7.68915 7.41909 7.73491 7.362 7.794C7.33267 7.82733 7.328 7.87 7.32867 7.914L7.33333 8C7.33314 8.16992 7.26808 8.33335 7.15143 8.45691C7.03479 8.58047 6.87536 8.65482 6.70574 8.66478C6.53611 8.67474 6.36908 8.61955 6.23878 8.51049C6.10848 8.40143 6.02474 8.24673 6.00467 8.078L6 8V7.83333C6 7.06467 6.62 6.60333 7.06933 6.42267C7.25221 6.34964 7.41174 6.22818 7.53079 6.07132C7.64984 5.91447 7.72392 5.72815 7.74506 5.53237C7.76621 5.33659 7.73363 5.13875 7.65082 4.96009C7.568 4.78144 7.43809 4.62871 7.27502 4.51832C7.11196 4.40793 6.92191 4.34404 6.72527 4.33351C6.52863 4.32299 6.33285 4.36622 6.15893 4.45858C5.98501 4.55094 5.83954 4.68892 5.73813 4.85772C5.63672 5.02652 5.58321 5.21975 5.58333 5.41667C5.58333 5.59348 5.51309 5.76305 5.38807 5.88807C5.26305 6.01309 5.09348 6.08333 4.91667 6.08333C4.73986 6.08333 4.57029 6.01309 4.44526 5.88807C4.32024 5.76305 4.25 5.59348 4.25 5.41667C4.25 4.77573 4.50461 4.16104 4.95783 3.70783C5.41104 3.25461 6.02573 3 6.66667 3Z" fill="var(--fill-0, #F9F9FA)"/>
</g>
</svg>
